<mxfile host="app.diagrams.net" agent="Mozilla/5.0 (Windows NT 10.0; Win64; x64) AppleWebKit/537.36 (KHTML, like Gecko) Chrome/131.0.0.0 Safari/537.36" version="26.0.9">
  <diagram id="yPxyJZ8AM_hMuL3Unpa9" name="gitflow">
    <mxGraphModel grid="1" page="1" gridSize="10" guides="1" tooltips="1" connect="1" arrows="1" fold="1" pageScale="1" pageWidth="850" pageHeight="1100" math="0" shadow="0">
      <root>
        <mxCell id="0" />
        <mxCell id="1" parent="0" />
        <mxCell id="EDPNCyUkhr80lCYK83Yf-177" value="&lt;font style=&quot;font-size: 16px;&quot;&gt;Client&lt;/font&gt;" style="rounded=1;whiteSpace=wrap;html=1;fontFamily=Lucida Console;align=left;spacingTop=0;spacingLeft=40;" vertex="1" parent="1">
          <mxGeometry x="250" y="150" width="190" height="60" as="geometry" />
        </mxCell>
        <mxCell id="EDPNCyUkhr80lCYK83Yf-178" value="&lt;span style=&quot;font-size: 16px;&quot;&gt;Server&lt;/span&gt;" style="rounded=1;whiteSpace=wrap;html=1;fontFamily=Lucida Console;align=left;spacingLeft=30;" vertex="1" parent="1">
          <mxGeometry x="630" y="150" width="180" height="60" as="geometry" />
        </mxCell>
        <mxCell id="EDPNCyUkhr80lCYK83Yf-179" value="" style="swimlane;startSize=0;rounded=1;dashed=1;dashPattern=8 8;" vertex="1" parent="1">
          <mxGeometry x="960" y="77.5" width="270" height="205" as="geometry">
            <mxRectangle x="1080" y="100" width="50" height="40" as="alternateBounds" />
          </mxGeometry>
        </mxCell>
        <mxCell id="EDPNCyUkhr80lCYK83Yf-180" value="Create Portfolio Topic" style="shape=cylinder3;whiteSpace=wrap;html=1;boundedLbl=1;backgroundOutline=1;size=15;direction=north;fontSize=16;fontFamily=Lucida Console;" vertex="1" parent="EDPNCyUkhr80lCYK83Yf-179">
          <mxGeometry x="30" y="125" width="210" height="50" as="geometry" />
        </mxCell>
        <mxCell id="EDPNCyUkhr80lCYK83Yf-181" value="Embed Transaction Topic" style="shape=cylinder3;whiteSpace=wrap;html=1;boundedLbl=1;backgroundOutline=1;size=15;direction=north;fontSize=16;fontFamily=Lucida Console;" vertex="1" parent="EDPNCyUkhr80lCYK83Yf-179">
          <mxGeometry x="30" y="35" width="210" height="50" as="geometry" />
        </mxCell>
        <mxCell id="EDPNCyUkhr80lCYK83Yf-189" value="" style="shape=image;verticalLabelPosition=bottom;labelBackgroundColor=default;verticalAlign=top;aspect=fixed;imageAspect=0;editableCssRules=.*;image=data:image/svg+xml,PHN2ZyB4bWxucz0iaHR0cDovL3d3dy53My5vcmcvMjAwMC9zdmciIHByZXNlcnZlQXNwZWN0UmF0aW89InhNaWRZTWlkIiB2aWV3Qm94PSIwIDAgMjU2IDQxNiIgaGVpZ2h0PSIyNTAiIHdpZHRoPSIxNTQiPjxwYXRoIHN0eWxlPSJmaWxsOiMyMzFmMjAiIGQ9Ik0yMDEuODE2IDIzMC4yMTZjLTE2LjE4NiAwLTMwLjY5NyA3LjE3MS00MC42MzQgMTguNDYxbC0yNS40NjMtMTguMDI2YzIuNzAzLTcuNDQyIDQuMjU1LTE1LjQzMyA0LjI1NS0yMy43OTcgMC04LjIxOS0xLjQ5OC0xNi4wNzYtNC4xMTItMjMuNDA4bDI1LjQwNi0xNy44MzVjOS45MzYgMTEuMjMzIDI0LjQwOSAxOC4zNjUgNDAuNTQ4IDE4LjM2NSAyOS44NzUgMCA1NC4xODQtMjQuMzA1IDU0LjE4NC01NC4xODQgMC0yOS44NzktMjQuMzA5LTU0LjE4NC01NC4xODQtNTQuMTg0LTI5Ljg3NSAwLTU0LjE4NCAyNC4zMDUtNTQuMTg0IDU0LjE4NCAwIDUuMzQ4LjgwOCAxMC41MDUgMi4yNTggMTUuMzg5bC0yNS40MjMgMTcuODQ0Yy0xMC42Mi0xMy4xNzUtMjUuOTExLTIyLjM3NC00My4zMzMtMjUuMTgydi0zMC42NGMyNC41NDQtNS4xNTUgNDMuMDM3LTI2Ljk2MiA0My4wMzctNTMuMDE5QzEyNC4xNzEgMjQuMzA1IDk5Ljg2MiAwIDY5Ljk4NyAwIDQwLjExMiAwIDE1LjgwMyAyNC4zMDUgMTUuODAzIDU0LjE4NGMwIDI1LjcwOCAxOC4wMTQgNDcuMjQ2IDQyLjA2NyA1Mi43Njl2MzEuMDM4QzI1LjA0NCAxNDMuNzUzIDAgMTcyLjQwMSAwIDIwNi44NTRjMCAzNC42MjEgMjUuMjkyIDYzLjM3NCA1OC4zNTUgNjguOTR2MzIuNzc0Yy0yNC4yOTkgNS4zNDEtNDIuNTUyIDI3LjAxMS00Mi41NTIgNTIuODk0IDAgMjkuODc5IDI0LjMwOSA1NC4xODQgNTQuMTg0IDU0LjE4NCAyOS44NzUgMCA1NC4xODQtMjQuMzA1IDU0LjE4NC01NC4xODQgMC0yNS44ODMtMTguMjUzLTQ3LjU1My00Mi41NTItNTIuODk0di0zMi43NzVhNjkuOTY1IDY5Ljk2NSAwIDAgMCA0Mi42LTI0Ljc3NmwyNS42MzMgMTguMTQzYy0xLjQyMyA0Ljg0LTIuMjIgOS45NDYtMi4yMiAxNS4yNCAwIDI5Ljg3OSAyNC4zMDkgNTQuMTg0IDU0LjE4NCA1NC4xODQgMjkuODc1IDAgNTQuMTg0LTI0LjMwNSA1NC4xODQtNTQuMTg0IDAtMjkuODc5LTI0LjMwOS01NC4xODQtNTQuMTg0LTU0LjE4NHptMC0xMjYuNjk1YzE0LjQ4NyAwIDI2LjI3IDExLjc4OCAyNi4yNyAyNi4yNzFzLTExLjc4MyAyNi4yNy0yNi4yNyAyNi4yNy0yNi4yNy0xMS43ODctMjYuMjctMjYuMjdjMC0xNC40ODMgMTEuNzgzLTI2LjI3MSAyNi4yNy0yNi4yNzF6bS0xNTguMS00OS4zMzdjMC0xNC40ODMgMTEuNzg0LTI2LjI3IDI2LjI3MS0yNi4yN3MyNi4yNyAxMS43ODcgMjYuMjcgMjYuMjdjMCAxNC40ODMtMTEuNzgzIDI2LjI3LTI2LjI3IDI2LjI3cy0yNi4yNzEtMTEuNzg3LTI2LjI3MS0yNi4yN3ptNTIuNTQxIDMwNy4yNzhjMCAxNC40ODMtMTEuNzgzIDI2LjI3LTI2LjI3IDI2LjI3cy0yNi4yNzEtMTEuNzg3LTI2LjI3MS0yNi4yN2MwLTE0LjQ4MyAxMS43ODQtMjYuMjcgMjYuMjcxLTI2LjI3czI2LjI3IDExLjc4NyAyNi4yNyAyNi4yN3ptLTI2LjI3Mi0xMTcuOTdjLTIwLjIwNSAwLTM2LjY0Mi0xNi40MzQtMzYuNjQyLTM2LjYzOCAwLTIwLjIwNSAxNi40MzctMzYuNjQyIDM2LjY0Mi0zNi42NDIgMjAuMjA0IDAgMzYuNjQxIDE2LjQzNyAzNi42NDEgMzYuNjQyIDAgMjAuMjA0LTE2LjQzNyAzNi42MzgtMzYuNjQxIDM2LjYzOHptMTMxLjgzMSA2Ny4xNzljLTE0LjQ4NyAwLTI2LjI3LTExLjc4OC0yNi4yNy0yNi4yNzFzMTEuNzgzLTI2LjI3IDI2LjI3LTI2LjI3IDI2LjI3IDExLjc4NyAyNi4yNyAyNi4yN2MwIDE0LjQ4My0xMS43ODMgMjYuMjcxLTI2LjI3IDI2LjI3MXoiLz48L3N2Zz4=;fontColor=light-dark(#000000,#000000);" vertex="1" parent="1">
          <mxGeometry x="1210" y="40" width="43.12" height="70" as="geometry" />
        </mxCell>
        <mxCell id="EDPNCyUkhr80lCYK83Yf-190" value="" style="shape=image;verticalLabelPosition=bottom;labelBackgroundColor=default;verticalAlign=top;aspect=fixed;imageAspect=0;editableCssRules=.*;image=data:image/svg+xml,PHN2ZyB4bWxucz0iaHR0cDovL3d3dy53My5vcmcvMjAwMC9zdmciIGhlaWdodD0iNDhweCIgd2lkdGg9IjQ4cHgiIHZpZXdCb3g9IjAgMCA0OCA0OCI+PHBhdGggZD0iTSAyNCA0IEMgMTIuOTcyIDQgNCAxMi45NzIgNCAyNCBDIDQgMzUuMDI4IDEyLjk3MiA0NCAyNCA0NCBDIDM1LjAyOCA0NCA0NCAzNS4wMjggNDQgMjQgQyA0NCAxMi45NzIgMzUuMDI4IDQgMjQgNCB6IE0gMjQgNyBDIDMzLjM3NCA3IDQxIDE0LjYyNiA0MSAyNCBDIDQxIDI5Ljg1MiAzOC4wMjc2NzIgMzUuMDIwMDc4IDMzLjUxMzY3MiAzOC4wODAwNzggTCAxOS43NDIxODggMTcuNjYwMTU2IEMgMTkuMzc1MTg3IDE3LjExMzE1NiAxOC42ODc1NDcgMTYuODc0NDUzIDE4LjA2MDU0NyAxNy4wNjQ0NTMgQyAxNy40MzA1NDcgMTcuMjU4NDUzIDE3IDE3Ljg0MSAxNyAxOC41IEwgMTcgMzEuNSBDIDE3IDMyLjMyOCAxNy42NzIgMzMgMTguNSAzMyBDIDE5LjMyOCAzMyAyMCAzMi4zMjggMjAgMzEuNSBMIDIwIDIzLjQwNjI1IEwgMzAuODc2OTUzIDM5LjUzMzIwMyBDIDI4Ljc3MDk1MyA0MC40NjgyMDMgMjYuNDQ4IDQxIDI0IDQxIEMgMTQuNjI2IDQxIDcgMzMuMzc0IDcgMjQgQyA3IDE0LjYyNiAxNC42MjYgNyAyNCA3IHogTSAyOS41IDE1IEMgMjguNjcyIDE1IDI4IDE1LjY3MiAyOCAxNi41IEwgMjggMjQuOTg2MzI4IEwgMzEgMjkuMjg5MDYyIEwgMzEgMTYuNSBDIDMxIDE1LjY3MiAzMC4zMjggMTUgMjkuNSAxNSB6Ii8+PC9zdmc+;" vertex="1" parent="1">
          <mxGeometry x="360" y="156" width="48" height="48" as="geometry" />
        </mxCell>
        <mxCell id="EDPNCyUkhr80lCYK83Yf-191" value="" style="shape=image;verticalLabelPosition=bottom;labelBackgroundColor=default;verticalAlign=top;aspect=fixed;imageAspect=0;editableCssRules=.*;image=data:image/svg+xml,PHN2ZyB4bWxucz0iaHR0cDovL3d3dy53My5vcmcvMjAwMC9zdmciIHdpZHRoPSIxMDAwIiB2aWV3Qm94PSIwIDAgMjY0LjU4MzMzIDI1NS41ODc1MSIgaGVpZ2h0PSI5NjYiPjxwYXRoIHRyYW5zZm9ybT0idHJhbnNsYXRlKDAgLTQxLjQxMjQ4NykiIGZpbGwtcnVsZT0iZXZlbm9kZCIgZmlsbD0iI2UwMjM0ZSIgZD0ibTE1My4zMzg0NSA0NS42NTI0ODFjLTEuODA5MzQgMC0zLjQ4OTQ0LjM4NzcyOS01LjA0MDMyLjkwNDY3MyAzLjI5NTU4IDIuMTk3MDYgNS4xMDQ5MyA1LjEwNDk2MSA2LjAwOTYzIDguNDAwNTUxLjA2NDguNDUyMzMuMTkzODYuNzc1NDQ0LjI1ODU2IDEuMjI3NzU5LjA2NDguMzg3NzI5LjEyOTE2Ljc3NTQ0NC4xMjkxNiAxLjE2MzE3MS4yNTg2IDUuNjg2NTA5LTEuNDg2MjggNi4zOTczMjMtMi43MTQwMyA5Ljc1NzU0My0xLjg3Mzk4IDQuMzI5NTI5LTEuMzU3MDQgOC45ODIxMzMuOTA0NjYgMTIuNzMwMDc5LjE5Mzg3LjQ1MjMxOC40NTIzNC45NjkyNzUuNzc1NDYgMS40MjE2MTgtMi40NTU1OC0xNi4zNDg3NTkgMTEuMTc5MTktMTguODA0MzA0IDEzLjY5OTMyLTIzLjkwOTI0LjE5Mzg2LTQuNDU4NzYxLTMuNDg5NDQtNy40MzEyNjMtNi4zOTczMS05LjQ5OTA5Mi0yLjc3ODY0LTEuNjgwMTA0LTUuMjk4ODQtMi4xOTcwNjItNy42MjUxMy0yLjE5NzA2MnptMjAuNTQ5MDMgMy42ODMzMThjLS4yNTg1OCAxLjQ4NjI0Ny0uMDY0NyAxLjA5ODUzLS4xMjkxMyAxLjg3Mzk3My0uMDY0Ny41MTY5NDUtLjA2NDcgMS4xNjMxNTctLjEyOTE0IDEuNjgwMTAyLS4xMjkxNC41MTY5NTktLjI1ODYgMS4wMzM5MDQtLjQ1MjM2IDEuNTUwODg2LS4xMjkxMy41MTY5NDUtLjMyMzA5IDEuMDMzOTAzLS41MTY5NCAxLjU1MDg0Ny0uMjU4Ni41MTY5ODMtLjQ1MjM0Ljk2OTMwMS0uNzEwODIgMS40ODYyNTgtLjE5Mzg1LjI1ODU4NS0uMzIzMDkuNTE2OTQ1LS41MTY5NS43NzU0NDMtLjEyOTE0LjE5Mzg1Ny0uMjU4NTguMzg3NzE1LS4zODc3MS41ODE1NzItLjMyMzA5LjQ1MjM1NS0uNjQ2MjEuOTA0NjczLS45NjkyOSAxLjI5MjM4Ny0uMzg3NzQuMzg3NzI5LS43MTA4My44NDAwNDYtMS4xNjMxOSAxLjE2MzE3MXYuMDY0N2MtLjM4NzcxLjMyMzEtLjc3NTQzLjcxMDgxNS0xLjIyNzc1IDEuMDMzOTAzLTEuMzU3MDIgMS4wMzM5MDItMi45MDc4NyAxLjgwOTM0NC00LjMyOTUyIDIuNzc4NjQ0LS40NTIzMS4zMjMwODgtLjkwNDY4LjU4MTU4Ny0xLjI5MjM4Ljk2OTMtLjQ1MjMzLjMyMzA4OC0uODQwMDYuNjQ2MTc2LTEuMjI3NzYgMS4wMzM5MDMtLjQ1MjM2LjM4NzcxNS0uNzc1NDUuNzc1NDQyLTEuMTYzMTggMS4yMjc3ODQtLjMyMzA5LjM4NzcyOC0uNzEwOC44NDAwNDgtLjk2OTI3IDEuMjkyNDAyLS4zMjMxMi40NTIzMTctLjY0NjIuOTA0NjYxLS45MDQ3IDEuMzU2OTktLjI1ODU3LjUxNjk0NC0uNDUyMzMuOTY5Mjk5LS43MTA4MSAxLjQ4NjI0NS0uMTkzODUuNTE2OTQ0LS4zODc3My45NjkzMDEtLjUxNjk1IDEuNDg2MjQ0LS4xOTM4Ni41ODE1ODYtLjMyMzEgMS4wOTg1NDQtLjQ1MjM0IDEuNjE1NTE0LS4wNjQ3LjI1ODU4My0uMDY0Ny41ODE1Ni0uMTI5MTQuODQwMDQ1LS4wNjQ4LjI1ODU4NC0uMDY0OC41MTY5NDUtLjEyOTEzLjc3NTQ0MyAwIC41MTY5NDQtLjA2NDcgMS4wOTg1My0uMDY0NyAxLjYxNTQ3NSAwIC4zODc3MjcgMCAuNzc1NDQxLjA2NDcgMS4xNjMxNjkgMCAuNTE2OTQ2LjA2NDcgMS4wMzM4OTIuMTkzODUgMS42MTU0NzYuMDY0Ny41MTY5NDQuMTkzODQgMS4wMzM5MDIuMzIzMTIgMS41NTA4ODUuMTkzODYuNTE2OTQ0LjMyMzEgMS4wMzM5MDIuNTE2OTQgMS41NTA4NDcuMTI5MTYuMzIzMTI2LjMyMzA5LjY0NjIxMy40NTIzNi45MDQ2NzNsLTE0Ljg2MjUyLTUuNzUxMTRjLTIuNTIwMTgtLjcxMDgxNS00Ljk3NTctMS4zNTY5OS03LjQ5NTg4LTEuOTM4NTc2LTEuMzU3LS4zMjMwODctMi43MTQtLjY0NjE5OC00LjA3MTAyLS45NjkyOTktMy44NzcxOS0uNzc1NDMtNy44MTg5NS0xLjM1Njk5MS0xMS43NjA3Ni0xLjc0NDcwNS0uMTI5MTMgMC0uMTkzODUtLjA2NDcxLS4zMjMwOS0uMDY0NzEtMy44NzcyLS4zODc3MTQtNy42ODk3My0uNTgxNTcyLTExLjU2NjktLjU4MTU3Mi0yLjg0MzI4IDAtNS42ODY1Ni4xMjkxMzEtOC40NjUyMDEuMzIzMDg4LTMuOTQxNzk4LjI1ODU4NC03Ljg4MzYwMi43NzU0NDItMTEuODI1MzczIDEuNDIxNjE3LS45NjkzMDIuMTI5MTQ0LTEuOTM4NjAyLjMyMzEyNS0yLjkwNzkwNS41MTY5ODQtMi4wMDMxOTkuMzg3Njg5LTMuOTQxNzcxLjg0MDA0NC01LjgxNTc0MiAxLjI5MjM4Ni0uOTY5My4yNTg1ODQtMS45Mzg2MDIuNTE2OTU4LTIuOTA3OTAzLjc3NTQxOS0uOTY5MjcuMzg3NzEzLTEuODczOTQuODQwMDctMi43Nzg2NDIgMS4yMjc3ODQtLjcxMDgxMS4zMjMwODgtMS40MjE2MTkuNjQ2MTg3LTIuMTMyNDMxLjk2OTMtLjEyOTEzOS4wNjQ3MS0uMjU4NTguMDY0NzEtLjMyMzA5LjEyOTE0NC0uNjQ2MjEuMzIzMDg3LTEuMjI3NzkuNTgxNTQ3LTEuODA5MzQxLjkwNDY3MS0uMTkzODYxLjA2NDcxLS4zMjMxMjIuMTI5MTMyLS40NTIzNTEuMTkzODU5LS43MTA4MS4zMjMwODktMS40MjE2MTguNzEwODAzLTIuMDAzMjAxIDEuMDMzOTAyLS40NTIzNS4xOTM4NTgtLjkwNDY3LjQ1MjM0My0xLjI5MjM4OS42NDYyMTMtLjE5Mzg2Mi4xMjkxMzEtLjQ1MjM1My4yNTg1NzItLjU4MTU4Mi4zMjMwODgtLjU4MTU3OS4zMjMwODgtMS4xNjMxNi42NDYxNzQtMS42ODAxMTEuOTY5My0uNTgxNTgxLjMyMzA4Ny0xLjA5ODUzMi42NDYxNzUtMS41NTA4ODIuOTY5MjYzLS40NTIzMTguMzIzMTI1LS45MDQ2NjcuNTgxNTg1LTEuMjkyMzkuOTA0NjcyLS4wNjQ3NC4wNjQ3MS0uMTI5MTM5LjA2NDcxLS4xOTM4NjEuMTI5MTQ1LS4zODc3MTkuMjU4NTgzLS44NDAwMzkuNTgxNTcxLTEuMjI3NzU4LjkwNDY5NiAwIDAtLjA2NDczLjA2NDctLjEyOTE0LjEyOTE0Mi0uMzIzMDkuMjU4NTg0LS42NDYyMTIuNTE2OTQ3LS45NjkzMDEuNzc1NDA3LS4xMjkxMzguMDY0NzEtLjI1ODU4MS4xOTM4NTctLjM4NzcyLjI1ODU4My0uMzIzMDkuMjU4NTg2LS42NDYxOC41ODE1ODYtLjk2OTI3MS44NDAwNy0uMDY0NzMuMTI5MTQzLS4xOTM4NTkuMTkzODU4LS4yNTg1ODEuMjU4NTg1LS4zODc3Mi4zODc3MTUtLjc3NTQ0MS43MTA4MDItMS4xNjMxNjEgMS4wOTg1My0uMDY0NzMgMC0uMDY0NzMuMDY0NzEtLjEyOTEzOS4xMjkxMzEtLjM4NzcyLjMyMzEtLjc3NTQzOS43MTA4MTYtMS4xNjMxNTkgMS4wOTg1NDMtLjA2NDczLjA2NDcxLS4wNjQ3My4xMjkxMy0uMTI5MTQuMTI5MTMtLjMyMzA5LjMyMzA4OS0uNjQ2MTguNjQ2MjEzLS45NjkzMDEgMS4wMzM5MDItLjEyOTEzNy4xMjkxNDMtLjMyMzA5LjI1ODU4Ni0uNDUyMzE5LjM4NzcxNS0uMzIzMDkuMzg3NzI4LS43MTA4MTEuNzc1NDQzLTEuMDk4NTMgMS4xNjMxNzEtLjA2NDczLjEyOTEzMi0uMTkzODYuMTkzODU4LS4yNTg1ODIuMzIzMDg3LS41MTY5NTIuNTE2OTgzLS45NjkzMDIgMS4wMzM5MjgtMS40ODYyNTIgMS41NTA4ODUtLjA2NDczLjA2NDcxLS4xMjkxMzguMTI5MTI4LS4xOTM4NTkuMTkzODU4LTEuMDMzOTMxIDEuMDk4NTI5LTIuMTMyNDYzIDIuMTk3MDU5LTMuMjk1NTk0IDMuMTY2MzUyLTEuMTYzMTU5IDEuMDMzOS0yLjM5MDkyMiAyLjAwMzItMy42MTg3MTEgMi44NDMyNS0xLjI5MjM5Mi45MDQ3LTIuNTIwMTUyIDEuNjgwMTEtMy44NzcxNzMgMi40NTU1NS0xLjI5MjM5Mi43MTA3OS0yLjY0OTQxMiAxLjM1NzAxLTQuMDcxMDMyIDEuOTM4Ni0xLjM1NzAyMi41ODE1Ny0yLjc3ODY0MSAxLjA5ODU0LTQuMjAwMjY0IDEuNTUwODUtMi43MTQwNDEuNTgxNTctNS40OTI2ODQgMS42ODAxMS03Ljg4MzYwNSAxLjg3Mzk3LS41MTY5NSAwLTEuMDk4NTMxLjEyOTE1LTEuNjE1NDgyLjE5Mzg1LS41ODE1NzguMTI5MTQtMS4wOTg1MjkuMjU4NTktMS42MTU0NzkuMzg3NzQtLjUxNjk1MS4xOTM4NC0xLjAzMzkzMS4zODc3MS0xLjU1MDg4My41ODE1Ni0uNTE2OTUxLjE5Mzg2LTEuMDMzOTAxLjQ1MjM1LTEuNTUwODUyLjcxMDgzLS40NTIzNS4zMjMwOC0uOTY5Mjk5LjU4MTU3LTEuNDIxNjUxLjkwNDY2LS40NTIzMjIuMzIzMDktLjkwNDY3Mi43MTA4LTEuMjkyMzkzIDEuMDk4NTMtLjQ1MjMxOS4zMjMxMi0uOTA0NjY5Ljc3NTQ1LTEuMjkyMzkgMS4xNjMxNS0uMzg3NzIxLjQ1MjM3LS43NzU0NC44NDAwOC0xLjA5ODUzMDQgMS4yOTIzOS0uMzIzMDkwMS41MTY5NS0uNzEwODEwOC45NjkzMS0uOTY5MzAxNiAxLjQ4NjI3LS4zMjMwOS40NTIzNS0uNjQ2MTc5OS45NjkyOS0uOTA0NjcwNyAxLjQ4NjIyLS4yNTg1ODE1LjU4MTYxLS41MTY5NDk4IDEuMDk4NTUtLjcxMDgxMDcgMS42ODAxNC0uMTkzODU5OS41MTY5NS0uMzg3NzE5OSAxLjA5ODUyLS41ODE1Nzk5IDEuNjgwMTEtLjEyOTEzODIuNTE2OTQtLjI1ODU4MTMgMS4wMzM5LS4zMjMwODk4IDEuNTUwODMgMCAuMDY0OC0uMDY0NzE5LjEyOTE2LS4wNjQ3MTkuMTkzODctLjEyOTEzOTIuNTgxNjEtLjEyOTEzOTIgMS4zNTcwNi0uMTkzODYwOCAxLjc0NDc5LS4wNjQ3MTkuNDUyMzItLjEyOTEzNzMuODQwMDItLjEyOTEzNzMgMS4yOTIzOCAwIC4yNTg1OCAwIC41ODE1NS4wNjQ3MTkuODQwMDMuMDY0NzE5LjQ1MjM2LjEyOTEzNzEuODQwMDcuMjU4NTgxNCAxLjIyNzgyLjEyOTEzODIuMzg3NjYuMjU4NTgxNS43NzUzOS40NTIzMjAxIDEuMTYzMTJ2LjA2NDdjLjE5Mzg1OTkuMzg3NzUuNDUyMzUwNi43NzU0NS43MTA4MTA4IDEuMTYzMTcuMjU4NTgxNC4zODc3Mi41MTY5ODA0Ljc3NTQ0Ljg0MDA3MDQgMS4xNjMxNy4zMjMwODk5LjMyMzA5LjcxMDgxMDkuNzEwNzggMS4wOTg1MzA0IDEuMDMzODkuMzg3NzIwOS4zODc3Mi43NzU0NDIxLjcxMDgxIDEuMjI3NzYxMSAxLjAzMzkgMS41NTA4ODEgMS4zNTcwMyAxLjkzODYwMSAxLjgwOTM4IDMuOTQxODA2IDIuODQzMjcuMzIzMDg3LjE5Mzg3LjY0NjIxLjMyMzExIDEuMDMzOTMuNTE2OTcuMDY0NzMgMCAuMTI5MTM5LjA2NDcuMTkzODU5LjA2NDcgMCAuMTI5MTMgMCAuMTkzODcuMDY0NzMuMzIzMTMuMDY0NzIuNTE2OTYuMTkzODU5IDEuMDMzODkuMzIzMDkgMS41NTA4Ni4xMjkxMzguNTgxNTguMzIzMTIxIDEuMDk4NTUuNTE2OTgxIDEuNTUwODcuMTkzODYuMzg3NzMuMzIzMDkuNzc1NDMuNTE2OTUxIDEuMTYzMTcuMDY0NzIuMTI5MTUuMTI5MTQuMjU4NTguMTkzODYuMzIzMDkuMjU4NTgxLjUxNjk0LjUxNjk1Ljk2OTMyLjc3NTQxIDEuNDIxNjIuMzIzMTIxLjQ1MjMzLjY0NjIxLjkwNDY2Ljk2OTI5OSAxLjM1NzAzLjMyMzA5Mi4zODc3LjcxMDgxMy44NDAwNCAxLjA5ODUzMiAxLjIyNzc1LjM4NzcyMS4zODc3My43NzU0NDIuNzEwODMgMS4yMjc3OTMgMS4wOTg1MiAwIDAgLjA2NDczLjA2NDguMTI5MTM3LjA2NDguMzg3NzIyLjMyMzEyLjc3NTQ0LjY0NjIyIDEuMTYzMTYyLjkwNDY2LjQ1MjMyLjMyMzExLjkwNDY3LjU4MTU3IDEuNDIxNjE5Ljg0MDA3LjQ1MjM1MS4yNTg1OC45NjkzMDIuNTE2OTUgMS40ODYyNTIuNzEwODIuMzg3NzIxLjE5Mzg2Ljg0MDA0LjMyMzExIDEuMjkyMzkyLjQ1MjM0LjA2NDczLjA2NDguMTI5MTM4LjA2NDguMjU4NTgyLjEyOTE2LjI1ODU4MS4wNjQ4LjU4MTU0OC4xMjkxMi44NDAwMzkuMTkzODQtLjE5Mzg1OSAzLjQ4OTQ1LS4yNTg1ODIgNi43ODUwNC4yNTg1ODMgNy45NDgyMi41ODE1NSAxLjI5MjM4IDMuNDI0ODIxLTIuNjQ5NDEgNi4yNjgwOTQtNy4xNzI3Ny0uMzg3NzE5IDQuNDU4NzUtLjY0NjIxMSA5LjY5MjkgMCAxMS4yNDM4MS43MTA4MDkgMS42MTU0NSA0LjU4Nzk4Mi0zLjQyNDg3IDcuOTQ4MjAzLTguOTgyMTUgNDUuODE1MjYyLTEwLjU5NzU3IDg3LjYyNDE4IDIxLjA2NiA5Mi4wMTgyOSA2NS43ODI3My0uODQwMDYtNi45Nzg5Mi05LjQzNDQ2LTEwLjg1NjA4LTEzLjM3NjIzLTkuODg2NzctMS45Mzg2MSA0Ljc4MTgzLTUuMjM0MiAxMC45MjA2OC0xMC41MzI5OSAxNC43MzMyNC40NTIzMy00LjI2NDkuMjU4NTYtOC42NTkwMS0uNjQ2MTktMTIuOTIzOTItMS40MjE2NSA1Ljk0NTAxLTQuMjAwMyAxMS41MDIzMi04LjAxMjg3IDE2LjI4NDE1LTYuMTM4ODU3LjQ1MjMyLTEyLjI3NzcyOS0yLjUyMDE5LTE1LjUwODcyLTYuOTc4OTEtLjI1ODU4Mi0uMTkzODgtLjMyMzA5MS0uNTgxNTktLjUxNjk1MS0uODQwMDYtLjE5Mzg2Mi0uNDUyMzgtLjM4NzcxOS0uOTA0NjctLjUxNjk1MS0xLjM1NzAzLS4xOTM4NTktLjQ1MjMyLS4zMjMwODktLjkwNDY3LS4zODc3MTktMS4zNTY5OS0uMDY0NzMtLjQ1MjM2LS4wNjQ3My0uOTA0NjktLjA2NDczLTEuNDIxNjMgMC0uMzIzMTIgMC0uNjQ2MiAwLS45NjkyOC4wNjQ3My0uNDUyMzguMTkzODYtLjkwNDcxLjMyMzA5MS0xLjM1NzA1LjEyOTEzOC0uNDUyMzIuMjU4NTgtLjkwNDY3LjQ1MjM1LTEuMzU3MDEuMjU4NTgyLS40NTIzMS40NTIzMi0uOTA0NjYuNzc1NDQxLTEuMzU2OTggMS4wOTg1My0zLjEwMTc4IDEuMDk4NTMtNS42MjE5Mi0uOTA0NjctNy4xMDgxNi0uMzg3NzIxLS4yNTg1OC0uNzc1NDQxLS40NTIzNi0xLjIyNzc5MS0uNjQ2MjItLjI1ODU4NC0uMDY0Ny0uNTgxNTgyLS4xOTM4Ni0uODQwMDQtLjI1ODU3LS4xOTM4NjEtLjA2NDctLjMyMzA5LS4xMjkxNi0uNTE2OTUxLS4xOTM4Ny0uNDUyMzUxLS4xMjkxNC0uOTA0NzAyLS4yNTg1OS0xLjM1NzAyMi0uMzIzMDktLjQ1MjM1LS4xMjkxMy0uOTA0NjctLjE5Mzg2LTEuMzU3MDItLjE5Mzg2LS40NTIzMjEtLjA2NDgtLjk2OTMwMy0uMTI5MTQtMS40MjE2MjItLjEyOTE0LS4zMjMwODkgMC0uNjQ2MjEuMDY0Ny0uOTY5MzAxLjA2NDctLjUxNjk0OSAwLS45NjkyOTkuMDY0OC0xLjQyMTYyMS4xOTM4Ni0uNDUyMzUuMDY0OC0uOTA0NjY5LjEyOTEzLTEuMzU3MDE5LjI1ODU2LS40NTIzMjIuMTI5MTUtLjkwNDY3My4yNTg1OS0xLjM1NzAyMy40NTIzOC0uNDUyMzE5LjE5Mzg1LS44NDAwNDEuMzg3NzEtMS4yOTIzODkuNTgxNTctLjM4NzY5LjE5Mzg3LS43NzU0MTIuNDUyMzItMS4yMjc3NjEuNjQ2MTgtMTUuMDU2MzcxIDkuODIyMTctNi4wNzQyMzUgMzIuODI2NzQgNC4yMDAyNjQgMzkuNDgyNTYtMy44NzcxNzUuNzEwODEtNy44MTg5NDcgMS41NTA5LTguOTE3NDc5IDIuMzkwOTItLjA2NDczLjA2NDctLjEyOTEzOC4xMjkxNS0uMTI5MTM4LjEyOTE1IDIuNzc4NjQyIDEuNjgwMDkgNS42ODY1MTYgMy4xMDE3MyA4LjcyMzYxNiA0LjMyOTQ5IDQuMTM1NjY1IDEuMzU3MDIgOC41Mjk3ODYgMi41ODQ3OSAxMC40NjgzODcgMy4xMDE3NnYuMDY0N2M1LjM2MzQyNCAxLjA5ODU0IDEwLjc5MTQ4IDEuNDg2MjYgMTYuMjg0MTM5IDEuMTYzMTcgMjguNjI2NDktMi4wMDMyMSA1Mi4wODM0LTIzLjc4MDAzIDU2LjM0ODMtNTIuNDcxMTEuMTI5MTQuNTgxNTkuMjU4NTggMS4wOTg1Mi4zODc3MiAxLjY4MDEyLjE5Mzg3IDEuMTYzMTIuNDUyMzIgMi4zOTA5LjU4MTU1IDMuNjE4Njd2LjA2NDhjLjEyOTE0LjU4MTU4LjE5Mzg2IDEuMTYzMTUuMjU4NTggMS42ODAxdi4yNTg1OWMuMDY0OC41ODE1Ny4xMjkxNSAxLjE2MzE2LjEyOTE1IDEuNjgwMS4wNjQ3LjcxMDgyLjEyOTE0IDEuNDIxNjIuMTI5MTQgMi4xMzI0N3YxLjAzMzljMCAuMzIzMTIuMDY0Ny43MTA4LjA2NDcgMS4wMzM5MiAwIC4zODc3My0uMDY0Ny43NzU0Mi0uMDY0NyAxLjE2MzE0di45MDQ2N2MwIC40NTIzNi0uMDY0OC44NDAwNi0uMDY0OCAxLjI5MjQgMCAuMjU4NTYgMCAuNTE2OTYtLjA2NDcuODQwMDYgMCAuNDUyMzYtLjA2NDcuOTA0NjYtLjA2NDcgMS40MjE2Mi0uMDY0OC4xOTM4Ni0uMDY0OC4zODc3Mi0uMDY0OC41ODE1OS0uMDY0Ny41MTY5Ni0uMTI5MTQuOTY5My0uMTkzODcgMS40ODYyNiAwIC4xOTM4NyAwIC4zODc3MS0uMDY0Ny41ODE1OS0uMDY0OC42NDYxNy0uMTkzODUgMS4yMjc3Ny0uMjU4NTUgMS44NzM5NHYuMDY0OC4wNjQ3Yy0uMTI5MTQuNTgxNTctLjI1ODYgMS4yMjc3Ni0uMzg3NzUgMS44MDkzM3YuMTkzODdjLS4xMjkxMi41ODE1Ni0uMjU4NTggMS4xNjMxNi0uMzg3NyAxLjc0NDcxIDAgLjA2NDgtLjA2NDcuMTkzODctLjA2NDcuMjU4NTYtLjEyOTE2LjU4MTYtLjI1ODYgMS4xNjMxNy0uNDUyMzIgMS43NDQ3OHYuMTkzODRjLS4xOTM4Ni42NDYxNy0uMzg3NzMgMS4yMjc3Ni0uNTE2OTggMS44MDkzNC0uMDY0Ny4wNjQ3LS4wNjQ3LjEyOTE0LS4wNjQ3LjEyOTE0LS4xOTM4Ny42NDYyMS0uMzg3NzEgMS4yOTIzOS0uNTgxNTUgMS45Mzg1OC0uMjU4NTguNjQ2MjEtLjQ1MjM0IDEuMjI3NzgtLjcxMDgxIDEuODczOTgtLjI1ODU3LjY0NjItLjQ1MjM2IDEuMjkyNC0uNzEwODMgMS44NzM5Ni0uMjU4NTkuNjQ2MjItLjUxNjk3IDEuMjI3OC0uNzc1NDMgMS44NzM5N2gtLjA2NDhjLS4yNTg2LjU4MTU3LS41MTY5OSAxLjIyNzc5LS44NDAxIDEuODA5MzgtLjA2NDcuMTkzODMtLjEyOTEyLjMyMzA5LS4xOTM4NC40NTIzLS4wNjQ3LjA2NDgtLjA2NDcuMTI5MTQtLjEyOTE0LjE5Mzg4LTQuMjAwMjYgOC40NjUxNC0xMC40MDM3NyAxNS44OTYzOS0xOC4xNTgwOSAyMS43MTIxNy0uNTE2OTUuMzIzMDktMS4wMzM5Mi43MTA4Mi0xLjU1MDg2IDEuMDk4NTItLjEyOTE1LjEyOTE1LS4zMjMxMi4xOTM4OC0uNDUyMzUuMzIzMDktLjQ1MjM1LjMyMzEtLjkwNDY4LjY0NjE4LTEuNDIxNjEuOTY5MzFsLjE5Mzg1LjM4NzcyaC4wNjQ3Yy45MDQ2Ni0uMTI5MTMgMS44MDkzNC0uMjU4NTggMi43MTQwMi0uMzg3NzJoLjA2NDdjMS42ODAxMi0uMjU4NTggMy4zNjAyMy0uNTgxNTggNS4wNDAzNS0uOTA0NjcuNDUyMzEtLjA2NDguOTY5My0uMTkzODUgMS40MjE2MS0uMzIzMTIuMzIzMDktLjA2NDguNTgxNTgtLjEyOTEzLjkwNDY3LS4xOTM4Ni40NTIzNS0uMDY0OC45MDQ2OC0uMTkzODYgMS4zNTcwNC0uMjU4NTcuMzg3Ny0uMTI5MTQuNzc1NDMtLjE5Mzg4IDEuMTYzMTQtLjMyMzEgNi40NjE5NS0xLjU1MDg5IDEyLjczMDA3LTMuNjgzMzUgMTguNzM5NjUtNi4yMDM0OS0xMC4yNzQ0OCAxNC4wMjI0My0yNC4wMzg0NyAyNS4zMzA4Ny00MC4xMjg3NCAzMi43NjIxMiA3LjQzMTI3LS41MTY5NiAxNC44NjI1MS0xLjc0NDcyIDIyLjAzNTI4LTMuODEyNTQgMjYuMDQxNy03LjY4OTc3IDQ3Ljk0NzcyLTI1LjIwMTY1IDYxLjA2NTQ5LTQ4Ljc4NzgtMi42NDk0IDE0LjkyNzE0LTguNTk0NCAyOS4xNDM0NC0xNy4zODI2NSA0MS41NTA0MSA2LjI2ODA5LTQuMTM1NjkgMTIuMDE5MjMtOC45MTc1MyAxNy4yNTM0Mi0xNC4zNDU1NyAxNC40NzQ3OC0xNS4xMjA5NyAyMy45NzM4OC0zNC4zMTI5NiAyNy4yMDQ4My01NC45MjY2NSAyLjE5NzA4IDEwLjIwOTkgMi44NDMyOCAyMC43NDI5MyAxLjg3Mzk4IDMxLjE0NjY2IDQ2LjY1NTM0LTY1LjA3MTkyIDMuODc3MTctMTMyLjUzNDc2LTE0LjAyMjQ0LTE1MC4zMDUxNDEtLjA2NDgtLjEyOTEzMy0uMTI5MTQtLjE5Mzg1OC0uMTI5MTQtLjMyMzA4OS0uMDY0OC4wNjQ3LS4wNjQ4LjA2NDctLjA2NDguMTI5MTQ0IDAtLjA2NDcxIDAtLjA2NDcxLS4wNjQ3LS4xMjkxNDQgMCAuNzc1NDQyLS4wNjQ3IDEuNTUwODQ4LS4xMjkxNCAyLjMyNjI5MS0uMTkzODcgMS40ODYyNS0uMzg3NzEgMi45MDc4NzktLjY0NjIxIDQuMzI5NTI5LS4zMjMwOCAxLjQyMTYyLS43MTA4MSAyLjg0MzIyLTEuMDk4NTQgNC4yNjQ4OC0uNDUyMzIgMS4zNTY5OS0uOTY5MjUgMi43Nzg2Mi0xLjU1MDg1IDQuMTM1NjUtLjU4MTU4IDEuMjkyMzctMS4yMjc3OCAyLjY0OTM5LTEuOTM4NTkgMy45NDE4LS43MTA4MiAxLjIyNzc4LTEuNDg2MjUgMi41MjAxNi0yLjMyNjI5IDMuNjgzMy0uODQwMDYgMS4yMjc4LTEuNzQ0NzQgMi4zOTA5My0yLjY0OTQzIDMuNDg5NDQtLjk2OTMxIDEuMTYzMTgtMi4wMDMxOSAyLjE5NzEtMy4wMzcxMiAzLjIzMTAxLS42NDYxOC41ODE1OC0xLjIyNzc1IDEuMDk4NTMtMS44NzM5OCAxLjYxNTQ2LS41MTY5NC40NTIzNi0uOTY5MjcuODQwMDktMS40ODYyNSAxLjI5MjM5LTEuMTYzMTQuOTA0NjgtMi4zMjYyOSAxLjc0NDc0LTMuNjE4NjcgMi41MjAxOS0xLjIyNzc4Ljc3NTQyLTIuNTIwMTQgMS41NTA4Ni0zLjgxMjU0IDIuMTk3MDctMS4zNTcwMi42NDYxOS0yLjcxNDA0IDEuMjI3NzYtNC4wNzEwNCAxLjgwOTM1LTEuMzU3MDIuNTE2OTMtMi43Nzg2NC45NjkyOC00LjIwMDMxIDEuMzU3MDEtMS40MjE2MS4zODc3LTIuOTA3ODUuNzEwODEtNC4zMjk0OS45NjkyOC0xLjQ4NjIzLjI1ODU4LTIuOTcyNDkuMzg3NzEtNC4zOTQxMi41MTY5Ny0xLjAzMzkyLjA2NDctMi4wNjc4Mi4xMjkxNS0zLjEwMTc1LjEyOTE1LTEuNDg2MjYgMC0yLjk3MjQ4LS4xMjkxNS00LjM5NDEyLS4yNTg1OC0xLjQ4NjI0LS4xMjkxNC0yLjk3MjUxLS4zMjMxNC00LjM5NDEzLS42NDYyMy0xLjQ4NjI1LS4yNTg1OC0yLjkwNzktLjY0NjIxLTQuMzI5NTMtMS4wOTg1MWgtLjA2NDdjMS40MjE2My0uMTI5MTQgMi44NDMyNy0uMjU4NiA0LjI2NDkyLS41MTY5NyAxLjQ4NjIyLS4yNTg1OCAyLjkwNzg1LS41ODE1NiA0LjMyOTUtLjk2OTMxIDEuNDIxNjItLjM4NzcxIDIuODQzMjUtLjg0MDA2IDQuMjAwMjYtMS4zNTcgMS40MjE2Mi0uNTE2OTYgMi43Nzg2NS0xLjE2MzEzIDQuMDcxMDUtMS44MDkzNiAxLjM1Ny0uNjQ2MjEgMi41ODQ3OC0xLjM1NyAzLjg3NzE2LTIuMTMyNDQgMS4yMjc3Ni0uODQwMDUgMi40NTU1NC0xLjY4MDA5IDMuNjE4NjktMi41ODQ3OSAxLjE2MzE2LS45MDQ2NiAyLjI2MTY3LTEuODczOTQgMy4yOTU2Mi0yLjkwNzg2IDEuMDk4NTMtLjk2OTMyIDIuMDY3ODEtMi4wNjc4NCAzLjAzNzExLTMuMTY2MzguOTY5MjctMS4xNjMxMiAxLjg3Mzk2LTIuMzI2MjggMi43MTQwMi0zLjQ4OTQ0LjEyOTE1LS4xOTM4Ny4yNTg1OS0uNDUyMzIuMzg3NzQtLjY0NjE5LjY0NjE3LTEuMDMzOTIgMS4yOTIzNS0yLjA2NzgzIDEuODczOTItMy4xMDE3Ni43MTA4My0xLjI5MjM5IDEuMzU3MDQtMi41ODQ3OSAxLjkzODYtMy45NDE3Ny41ODE1OS0xLjM1NzAyIDEuMDk4NTUtMi43MTQwNSAxLjU1MDg5LTQuMTM1NjYuNDUyMzItMS4zNTcwMy43NzU0Mi0yLjc3ODY0IDEuMDk4NTMtNC4yMDAyNTguMjU4NTktMS40ODYyNTguNTE2OTQtMi45MDc5MS42NDYxOS00LjMyOTUyOC4xMjkxNC0xLjQ4NjI0NC4yNTg1Ny0yLjk3MjUwMy4yNTg1Ny00LjM5NDExOSAwLTEuMDMzOTI4LS4wNjQ4LTIuMDY3ODMtLjEyOTEyLTMuMTAxNzMzLS4xMjkxNS0xLjQ4NjI0Ni0uMzIzMTEtMi45MDc5LS41MTY5Ni00LjMyOTUxOS0uMjU4NTktMS40ODYyNTctLjU4MTU3LTIuOTA3ODczLS45NjkzMS00LjMyOTUyOS0uNDUyMzEtMS4zNTY5OTEtLjkwNDY3LTIuNzc4NjM0LTEuNDIxNjEtNC4xMzU2MjMtLjUxNjk5LTEuMzU3MDI4LTEuMTYzMTUtMi43MTQwNDItMS44MDkzOC00LjAwNjQ0My0uNzEwODEtMS4yOTIzODgtMS40MjE2MS0yLjU4NDc3Ni0yLjE5NzA0LTMuODEyNTM2LS44NDAwNS0xLjIyNzc2LTEuNjgwMTMtMi4zOTA5MTctMi41ODQ4LTMuNTU0MDg3LS45NjkyNy0xLjA5ODUzMS0xLjkzODU3LTIuMTk3MDYtMi45NzI1MS0zLjI5NTU5LS41MTY5NC0uNTE2OTQ3LTEuMDk4NTMtMS4wOTg1MzItMS42ODAxLTEuNjE1NDc2LTIuOTA3ODctMi4yNjE3LTUuOTQ1LTQuMzk0MTU5LTguOTgyMS02LjMzMjczMi0uNDUyMzMtLjI1ODU3NC0uODQwMDUtLjQ1MjM0Mi0xLjI5MjQtLjY0NjIxMi0yLjEzMjQ2LTEuMzU2OTkyLTQuMTM1NjYtMi4wNjc4MzEtNi4xMzg4NS0yLjcxNDAwN3oiLz48L3N2Zz4=;" vertex="1" parent="1">
          <mxGeometry x="730" y="156.00000000000003" width="50" height="48.3" as="geometry" />
        </mxCell>
        <mxCell id="EDPNCyUkhr80lCYK83Yf-193" value="" style="endArrow=open;endFill=1;endSize=7;html=1;rounded=0;exitX=1;exitY=0.5;exitDx=0;exitDy=0;entryX=0;entryY=0.5;entryDx=0;entryDy=0;fontSize=6;" edge="1" parent="1" source="EDPNCyUkhr80lCYK83Yf-177" target="EDPNCyUkhr80lCYK83Yf-178">
          <mxGeometry width="160" relative="1" as="geometry">
            <mxPoint x="550" y="270" as="sourcePoint" />
            <mxPoint x="710" y="270" as="targetPoint" />
          </mxGeometry>
        </mxCell>
        <mxCell id="EDPNCyUkhr80lCYK83Yf-196" value="&lt;font style=&quot;font-size: 16px;&quot;&gt;Portfolio Consumer&lt;/font&gt;" style="rounded=1;whiteSpace=wrap;html=1;fontFamily=Lucida Console;align=left;spacingTop=0;spacingLeft=20;" vertex="1" parent="1">
          <mxGeometry x="1430" y="197.5" width="260" height="60" as="geometry" />
        </mxCell>
        <mxCell id="EDPNCyUkhr80lCYK83Yf-197" value="" style="shape=image;verticalLabelPosition=bottom;labelBackgroundColor=default;verticalAlign=top;aspect=fixed;imageAspect=0;editableCssRules=.*;image=data:image/svg+xml,PHN2ZyB4bWxucz0iaHR0cDovL3d3dy53My5vcmcvMjAwMC9zdmciIGZpbGw9Im5vbmUiIHZpZXdCb3g9IjAgMCA2NCA2NCIgaGVpZ2h0PSI4MDBweCIgd2lkdGg9IjgwMHB4Ij48cGF0aCBmaWxsPSJ1cmwoI2EpIiBkPSJNMzEuODg1IDE2Yy04LjEyNCAwLTcuNjE3IDMuNTIzLTcuNjE3IDMuNTIzbC4wMSAzLjY1aDcuNzUydjEuMDk1SDIxLjE5N1MxNiAyMy42NzggMTYgMzEuODc2YzAgOC4xOTYgNC41MzcgNy45MDYgNC41MzcgNy45MDZoMi43MDh2LTMuODA0cy0uMTQ2LTQuNTM3IDQuNDY1LTQuNTM3aDcuNjg4czQuMzIuMDcgNC4zMi00LjE3NXYtNy4wMTlTNDAuMzc0IDE2IDMxLjg4NSAxNnptLTQuMjc1IDIuNDU0Yy43NzEgMCAxLjM5NS42MjQgMS4zOTUgMS4zOTVzLS42MjQgMS4zOTUtMS4zOTUgMS4zOTVhMS4zOTMgMS4zOTMgMCAwIDEtMS4zOTUtMS4zOTVjMC0uNzcxLjYyNC0xLjM5NSAxLjM5NS0xLjM5NXoiLz48cGF0aCBmaWxsPSJ1cmwoI2IpIiBkPSJNMzIuMTE1IDQ3LjgzM2M4LjEyNCAwIDcuNjE3LTMuNTIzIDcuNjE3LTMuNTIzbC0uMDEtMy42NUgzMS45N3YtMS4wOTVoMTAuODMyUzQ4IDQwLjE1NSA0OCAzMS45NThjMC04LjE5Ny00LjUzNy03LjkwNi00LjUzNy03LjkwNmgtMi43MDh2My44MDNzLjE0NiA0LjUzNy00LjQ2NSA0LjUzN2gtNy42ODhzLTQuMzItLjA3LTQuMzIgNC4xNzV2Ny4wMTlzLS42NTYgNC4yNDcgNy44MzMgNC4yNDd6bTQuMjc1LTIuNDU0YTEuMzkzIDEuMzkzIDAgMCAxLTEuMzk1LTEuMzk1YzAtLjc3LjYyNC0xLjM5NCAxLjM5NS0xLjM5NHMxLjM5NS42MjMgMS4zOTUgMS4zOTRjMCAuNzcyLS42MjQgMS4zOTUtMS4zOTUgMS4zOTV6Ii8+PGRlZnM+PGxpbmVhckdyYWRpZW50IGdyYWRpZW50VW5pdHM9InVzZXJTcGFjZU9uVXNlIiB5Mj0iMzQuNjU4IiB4Mj0iMzQuODk4IiB5MT0iMTguNzgyIiB4MT0iMTkuMDc1IiBpZD0iYSI+PHN0b3Agc3RvcC1jb2xvcj0iIzM4N0VCOCIvPjxzdG9wIHN0b3AtY29sb3I9IiMzNjY5OTQiIG9mZnNldD0iMSIvPjwvbGluZWFyR3JhZGllbnQ+PGxpbmVhckdyYWRpZW50IGdyYWRpZW50VW5pdHM9InVzZXJTcGFjZU9uVXNlIiB5Mj0iNDUuMTYzIiB4Mj0iNDUuODAzIiB5MT0iMjguODgyIiB4MT0iMjguODA5IiBpZD0iYiI+PHN0b3Agc3RvcC1jb2xvcj0iI0ZGRTA1MiIvPjxzdG9wIHN0b3AtY29sb3I9IiNGRkMzMzEiIG9mZnNldD0iMSIvPjwvbGluZWFyR3JhZGllbnQ+PC9kZWZzPjwvc3ZnPg==;" vertex="1" parent="1">
          <mxGeometry x="1610" y="187.5" width="80" height="80" as="geometry" />
        </mxCell>
        <mxCell id="EDPNCyUkhr80lCYK83Yf-200" value="" style="endArrow=open;endFill=1;endSize=7;html=1;rounded=1;exitX=0.5;exitY=1;exitDx=0;exitDy=0;entryX=0;entryY=0.5;entryDx=0;entryDy=0;fontSize=6;exitPerimeter=0;curved=0;" edge="1" parent="1" source="EDPNCyUkhr80lCYK83Yf-180" target="EDPNCyUkhr80lCYK83Yf-196">
          <mxGeometry width="160" relative="1" as="geometry">
            <mxPoint x="1460" y="240" as="sourcePoint" />
            <mxPoint x="1650" y="240" as="targetPoint" />
            <Array as="points">
              <mxPoint x="1310" y="228" />
            </Array>
          </mxGeometry>
        </mxCell>
        <mxCell id="EDPNCyUkhr80lCYK83Yf-201" value="" style="shape=cylinder3;whiteSpace=wrap;html=1;boundedLbl=1;backgroundOutline=1;size=15;fillColor=#dae8fc;strokeColor=#6c8ebf;" vertex="1" parent="1">
          <mxGeometry x="2201.6800000000003" y="-320" width="70" height="90" as="geometry" />
        </mxCell>
        <mxCell id="EDPNCyUkhr80lCYK83Yf-202" value="" style="shape=image;verticalLabelPosition=bottom;labelBackgroundColor=default;verticalAlign=top;aspect=fixed;imageAspect=0;editableCssRules=.*;image=data:image/svg+xml,PHN2ZyB4bWxucz0iaHR0cDovL3d3dy53My5vcmcvMjAwMC9zdmciIHhtbDpzcGFjZT0icHJlc2VydmUiIHZpZXdCb3g9IjAgMCA0MzIuMDcxIDQ0NS4zODMiIGhlaWdodD0iNDQ1LjM4M3B0IiB3aWR0aD0iNDMyLjA3MXB0Ij4mI3hhOzxnIHN0eWxlPSJmaWxsLXJ1bGU6bm9uemVybztjbGlwLXJ1bGU6bm9uemVybztzdHJva2U6IzAwMDAwMDtzdHJva2UtbWl0ZXJsaW1pdDo0OyIgaWQ9Im9yZ2luYWwiPiYjeGE7CTwvZz4mI3hhOzxnIHN0eWxlPSJmaWxsLXJ1bGU6bm9uemVybztjbGlwLXJ1bGU6bm9uemVybztmaWxsOm5vbmU7c3Ryb2tlOiNGRkZGRkY7c3Ryb2tlLXdpZHRoOjEyLjQ2NTE7c3Ryb2tlLWxpbmVjYXA6cm91bmQ7c3Ryb2tlLWxpbmVqb2luOnJvdW5kO3N0cm9rZS1taXRlcmxpbWl0OjQ7IiBpZD0iTGF5ZXJfeDAwMjBfMyI+JiN4YTs8cGF0aCBkPSJNMzIzLjIwNSwzMjQuMjI3YzIuODMzLTIzLjYwMSwxLjk4NC0yNy4wNjIsMTkuNTYzLTIzLjIzOWw0LjQ2MywwLjM5MmMxMy41MTcsMC42MTUsMzEuMTk5LTIuMTc0LDQxLjU4Ny03YzIyLjM2Mi0xMC4zNzYsMzUuNjIyLTI3LjcsMTMuNTcyLTIzLjE0OGMtNTAuMjk3LDEwLjM3Ni01My43NTUtNi42NTUtNTMuNzU1LTYuNjU1YzUzLjExMS03OC44MDMsNzUuMzEzLTE3OC44MzYsNTYuMTQ5LTIwMy4zMjIgICAgQzM1Mi41MTQtNS41MzQsMjYyLjAzNiwyNi4wNDksMjYwLjUyMiwyNi44NjlsLTAuNDgyLDAuMDg5Yy05LjkzOC0yLjA2Mi0yMS4wNi0zLjI5NC0zMy41NTQtMy40OTZjLTIyLjc2MS0wLjM3NC00MC4wMzIsNS45NjctNTMuMTMzLDE1LjkwNGMwLDAtMTYxLjQwOC02Ni40OTgtMTUzLjg5OSw4My42MjhjMS41OTcsMzEuOTM2LDQ1Ljc3NywyNDEuNjU1LDk4LjQ3LDE3OC4zMSAgICBjMTkuMjU5LTIzLjE2MywzNy44NzEtNDIuNzQ4LDM3Ljg3MS00Mi43NDhjOS4yNDIsNi4xNCwyMC4zMDcsOS4yNzIsMzEuOTEyLDguMTQ3bDAuODk3LTAuNzY1Yy0wLjI4MSwyLjg3Ni0wLjE1Nyw1LjY4OSwwLjM1OSw5LjAxOWMtMTMuNTcyLDE1LjE2Ny05LjU4NCwxNy44My0zNi43MjMsMjMuNDE2Yy0yNy40NTcsNS42NTktMTEuMzI2LDE1LjczNC0wLjc5NywxOC4zNjdjMTIuNzY4LDMuMTkzLDQyLjMwNSw3LjcxNiw2Mi4yNjgtMjAuMjI0ICAgIGwtMC43OTUsMy4xODhjNS4zMjUsNC4yNiw0Ljk2NSwzMC42MTksNS43Miw0OS40NTJjMC43NTYsMTguODM0LDIuMDE3LDM2LjQwOSw1Ljg1Niw0Ni43NzFjMy44MzksMTAuMzYsOC4zNjksMzcuMDUsNDQuMDM2LDI5LjQwNmMyOS44MDktNi4zODgsNTIuNi0xNS41ODIsNTQuNjc3LTEwMS4xMDciIHN0eWxlPSJmaWxsOiMwMDAwMDA7c3Ryb2tlOiMwMDAwMDA7c3Ryb2tlLXdpZHRoOjM3LjM5NTM7c3Ryb2tlLWxpbmVjYXA6YnV0dDtzdHJva2UtbGluZWpvaW46bWl0ZXI7Ii8+JiN4YTs8cGF0aCBkPSJNNDAyLjM5NSwyNzEuMjNjLTUwLjMwMiwxMC4zNzYtNTMuNzYtNi42NTUtNTMuNzYtNi42NTVjNTMuMTExLTc4LjgwOCw3NS4zMTMtMTc4Ljg0Myw1Ni4xNTMtMjAzLjMyNmMtNTIuMjctNjYuNzg1LTE0Mi43NTItMzUuMi0xNDQuMjYyLTM0LjM4bC0wLjQ4NiwwLjA4N2MtOS45MzgtMi4wNjMtMjEuMDYtMy4yOTItMzMuNTYtMy40OTZjLTIyLjc2MS0wLjM3My00MC4wMjYsNS45NjctNTMuMTI3LDE1LjkwMiAgICBjMCwwLTE2MS40MTEtNjYuNDk1LTE1My45MDQsODMuNjNjMS41OTcsMzEuOTM4LDQ1Ljc3NiwyNDEuNjU3LDk4LjQ3MSwxNzguMzEyYzE5LjI2LTIzLjE2MywzNy44NjktNDIuNzQ4LDM3Ljg2OS00Mi43NDhjOS4yNDMsNi4xNCwyMC4zMDgsOS4yNzIsMzEuOTA4LDguMTQ3bDAuOTAxLTAuNzY1Yy0wLjI4LDIuODc2LTAuMTUyLDUuNjg5LDAuMzYxLDkuMDE5Yy0xMy41NzUsMTUuMTY3LTkuNTg2LDE3LjgzLTM2LjcyMywyMy40MTYgICAgYy0yNy40NTksNS42NTktMTEuMzI4LDE1LjczNC0wLjc5NiwxOC4zNjdjMTIuNzY4LDMuMTkzLDQyLjMwNyw3LjcxNiw2Mi4yNjYtMjAuMjI0bC0wLjc5NiwzLjE4OGM1LjMxOSw0LjI2LDkuMDU0LDI3LjcxMSw4LjQyOCw0OC45NjljLTAuNjI2LDIxLjI1OS0xLjA0NCwzNS44NTQsMy4xNDcsNDcuMjU0YzQuMTkxLDExLjQsOC4zNjgsMzcuMDUsNDQuMDQyLDI5LjQwNmMyOS44MDktNi4zODgsNDUuMjU2LTIyLjk0Miw0Ny40MDUtNTAuNTU1ICAgIGMxLjUyNS0xOS42MzEsNC45NzYtMTYuNzI5LDUuMTk0LTM0LjI4bDIuNzY4LTguMzA5YzMuMTkyLTI2LjYxMSwwLjUwNy0zNS4xOTYsMTguODcyLTMxLjIwM2w0LjQ2MywwLjM5MmMxMy41MTcsMC42MTUsMzEuMjA4LTIuMTc0LDQxLjU5MS03YzIyLjM1OC0xMC4zNzYsMzUuNjE4LTI3LjcsMTMuNTczLTIzLjE0OHoiIHN0eWxlPSJmaWxsOiMzMzY3OTE7c3Ryb2tlOm5vbmU7Ii8+JiN4YTs8cGF0aCBkPSJNMjE1Ljg2NiwyODYuNDg0Yy0xLjM4NSw0OS41MTYsMC4zNDgsOTkuMzc3LDUuMTkzLDExMS40OTVjNC44NDgsMTIuMTE4LDE1LjIyMywzNS42ODgsNTAuOSwyOC4wNDVjMjkuODA2LTYuMzksNDAuNjUxLTE4Ljc1Niw0NS4zNTctNDYuMDUxYzMuNDY2LTIwLjA4MiwxMC4xNDgtNzUuODU0LDExLjAwNS04Ny4yODEiLz4mI3hhOzxwYXRoIGQ9Ik0xNzMuMTA0LDM4LjI1NmMwLDAtMTYxLjUyMS02Ni4wMTYtMTU0LjAxMiw4NC4xMDljMS41OTcsMzEuOTM4LDQ1Ljc3OSwyNDEuNjY0LDk4LjQ3MywxNzguMzE2YzE5LjI1Ni0yMy4xNjYsMzYuNjcxLTQxLjMzNSwzNi42NzEtNDEuMzM1Ii8+JiN4YTs8cGF0aCBkPSJNMjYwLjM0OSwyNi4yMDdjLTUuNTkxLDEuNzUzLDg5Ljg0OC0zNC44ODksMTQ0LjA4NywzNC40MTdjMTkuMTU5LDI0LjQ4NC0zLjA0MywxMjQuNTE5LTU2LjE1MywyMDMuMzI5Ii8+JiN4YTs8cGF0aCBkPSJNMzQ4LjI4MiwyNjMuOTUzYzAsMCwzLjQ2MSwxNy4wMzYsNTMuNzY0LDYuNjUzYzIyLjA0LTQuNTUyLDguNzc2LDEyLjc3NC0xMy41NzcsMjMuMTU1Yy0xOC4zNDUsOC41MTQtNTkuNDc0LDEwLjY5Ni02MC4xNDYtMS4wNjljLTEuNzI5LTMwLjM1NSwyMS42NDctMjEuMTMzLDE5Ljk2LTI4LjczOWMtMS41MjUtNi44NS0xMS45NzktMTMuNTczLTE4Ljg5NC0zMC4zMzggICAgYy02LjAzNy0xNC42MzMtODIuNzk2LTEyNi44NDksMjEuMjg3LTExMC4xODNjMy44MTMtMC43ODktMjcuMTQ2LTk5LjAwMi0xMjQuNTUzLTEwMC41OTljLTk3LjM4NS0xLjU5Ny05NC4xOSwxMTkuNzYyLTk0LjE5LDExOS43NjIiIHN0eWxlPSJzdHJva2UtbGluZWpvaW46YmV2ZWw7Ii8+JiN4YTs8cGF0aCBkPSJNMTg4LjYwNCwyNzQuMzM0Yy0xMy41NzcsMTUuMTY2LTkuNTg0LDE3LjgyOS0zNi43MjMsMjMuNDE3Yy0yNy40NTksNS42Ni0xMS4zMjYsMTUuNzMzLTAuNzk3LDE4LjM2NWMxMi43NjgsMy4xOTUsNDIuMzA3LDcuNzE4LDYyLjI2Ni0yMC4yMjljNi4wNzgtOC41MDktMC4wMzYtMjIuMDg2LTguMzg1LTI1LjU0N2MtNC4wMzQtMS42NzEtOS40MjgtMy43NjUtMTYuMzYxLDMuOTk0eiIvPiYjeGE7PHBhdGggZD0iTTE4Ny43MTUsMjc0LjA2OWMtMS4zNjgtOC45MTcsMi45My0xOS41MjgsNy41MzYtMzEuOTQyYzYuOTIyLTE4LjYyNiwyMi44OTMtMzcuMjU1LDEwLjExNy05Ni4zMzljLTkuNTIzLTQ0LjAyOS03My4zOTYtOS4xNjMtNzMuNDM2LTMuMTkzYy0wLjAzOSw1Ljk2OCwyLjg4OSwzMC4yNi0xLjA2Nyw1OC41NDhjLTUuMTYyLDM2LjkxMywyMy40ODgsNjguMTMyLDU2LjQ3OSw2NC45MzgiLz4mI3hhOzxwYXRoIGQ9Ik0xNzIuNTE3LDE0MS43Yy0wLjI4OCwyLjAzOSwzLjczMyw3LjQ4LDguOTc2LDguMjA3YzUuMjM0LDAuNzMsOS43MTQtMy41MjIsOS45OTgtNS41NTljMC4yODQtMi4wMzktMy43MzItNC4yODUtOC45NzctNS4wMTVjLTUuMjM3LTAuNzMxLTkuNzE5LDAuMzMzLTkuOTk2LDIuMzY3eiIgc3R5bGU9ImZpbGw6I0ZGRkZGRjtzdHJva2Utd2lkdGg6NC4xNTU7c3Ryb2tlLWxpbmVjYXA6YnV0dDtzdHJva2UtbGluZWpvaW46bWl0ZXI7Ii8+JiN4YTs8cGF0aCBkPSJNMzMxLjk0MSwxMzcuNTQzYzAuMjg0LDIuMDM5LTMuNzMyLDcuNDgtOC45NzYsOC4yMDdjLTUuMjM4LDAuNzMtOS43MTgtMy41MjItMTAuMDA1LTUuNTU5Yy0wLjI3Ny0yLjAzOSwzLjc0LTQuMjg1LDguOTc5LTUuMDE1YzUuMjM5LTAuNzMsOS43MTgsMC4zMzMsMTAuMDAyLDIuMzY4eiIgc3R5bGU9ImZpbGw6I0ZGRkZGRjtzdHJva2Utd2lkdGg6Mi4wNzc1O3N0cm9rZS1saW5lY2FwOmJ1dHQ7c3Ryb2tlLWxpbmVqb2luOm1pdGVyOyIvPiYjeGE7PHBhdGggZD0iTTM1MC42NzYsMTIzLjQzMmMwLjg2MywxNS45OTQtMy40NDUsMjYuODg4LTMuOTg4LDQzLjkxNGMtMC44MDQsMjQuNzQ4LDExLjc5OSw1My4wNzQtNy4xOTEsODEuNDM1Ii8+JiN4YTs8cGF0aCBkPSJNMCw2MC4yMzIiIHN0eWxlPSJzdHJva2Utd2lkdGg6MzsiLz4mI3hhOzwvZz4mI3hhOzwvc3ZnPg==;" vertex="1" parent="1">
          <mxGeometry x="2217.26" y="-280" width="38.83" height="40" as="geometry" />
        </mxCell>
        <mxCell id="EDPNCyUkhr80lCYK83Yf-204" value="" style="shape=image;verticalLabelPosition=bottom;labelBackgroundColor=default;verticalAlign=top;aspect=fixed;imageAspect=0;editableCssRules=.*;image=data:image/svg+xml,PHN2ZyB4bWxuczp4bGluaz0iaHR0cDovL3d3dy53My5vcmcvMTk5OS94bGluayIgeG1sbnM9Imh0dHA6Ly93d3cudzMub3JnLzIwMDAvc3ZnIiB4bWw6c3BhY2U9InByZXNlcnZlIiBzdHlsZT0iZW5hYmxlLWJhY2tncm91bmQ6bmV3IDAgMCA4NDEuODkgNTk1LjI4OyIgdmlld0JveD0iMCAwIDg0MS44OSA1OTUuMjgiIHk9IjBweCIgeD0iMHB4IiBpZD0ia2F0bWFuXzEiIHZlcnNpb249IjEuMSI+JiN4YTs8c3R5bGUgdHlwZT0idGV4dC9jc3MiPiYjeGE7CSYjeGE7CQkuc3Qwe2NsaXAtcGF0aDp1cmwoI1NWR0lEXzAwMDAwMDk3NDc3MDAwNzQwODg0MDI2MTQwMDAwMDA2MTMwMTQwMDQwNDM2NjM3MzMxXyk7ZmlsbDp1cmwoI1NWR0lEXzAwMDAwMTI3NzQ2NzMzNzI3MzkzODY3ODYwMDAwMDE1NzY3ODE2NjI4NzUyNzQ0ODc1Xyk7fSYjeGE7CSYjeGE7CQkuc3Qxe2NsaXAtcGF0aDp1cmwoI1NWR0lEXzAwMDAwMDk3NDc3MDAwNzQwODg0MDI2MTQwMDAwMDA2MTMwMTQwMDQwNDM2NjM3MzMxXyk7ZmlsbDp1cmwoI1NWR0lEXzAwMDAwMTQ0MzIwODUzODM3NzQ5NDYzODIwMDAwMDExODYyODUxOTE2ODI4MzMwNjc1Xyk7fSYjeGE7CS5zdDJ7Y2xpcC1wYXRoOnVybCgjU1ZHSURfMDAwMDAwOTc0NzcwMDA3NDA4ODQwMjYxNDAwMDAwMDYxMzAxNDAwNDA0MzY2MzczMzFfKTtmaWxsOiNGNUZGODA7fSYjeGE7CS5zdDN7ZmlsbC1ydWxlOmV2ZW5vZGQ7Y2xpcC1ydWxlOmV2ZW5vZGQ7ZmlsbDojMUQxRDFCO30mI3hhOwkuc3Q0e2ZpbGw6IzFEMUQxQjt9JiN4YTs8L3N0eWxlPiYjeGE7PGc+JiN4YTsJPGRlZnM+JiN4YTsJCTxwYXRoIGQ9Ik0xNDEuNDQsMjE2LjYyTDE0MS40NCwyMTYuNjJjNDQuOCwwLDgxLjEyLDM2LjMyLDgxLjEyLDgxLjEybDAsMGMwLDQ0LjgtMzYuMzIsODEuMTItODEuMTIsODEuMTJsMCwwJiMxMDsmIzk7JiM5OyYjOTtjLTQ0LjgsMC04MS4xMi0zNi4zMi04MS4xMi04MS4xMmwwLDBDNjAuMzMsMjUyLjkzLDk2LjY0LDIxNi42MiwxNDEuNDQsMjE2LjYyeiIgaWQ9IlNWR0lEXzFfIi8+JiN4YTsJPC9kZWZzPiYjeGE7CTxjbGlwUGF0aCBpZD0iU1ZHSURfMDAwMDAwMDk1NzQ4NzQ0MDA3NzEyOTk2NTAwMDAwMDA1Njk1MjY3MDI1NjUwMzc0OTVfIj4mI3hhOwkJPHVzZSBzdHlsZT0ib3ZlcmZsb3c6dmlzaWJsZTsiIHhsaW5rOmhyZWY9IiNTVkdJRF8xXyIvPiYjeGE7CTwvY2xpcFBhdGg+JiN4YTsJJiN4YTsJCTxsaW5lYXJHcmFkaWVudCBncmFkaWVudFRyYW5zZm9ybT0ibWF0cml4KDEgMCAwIC0xIC0wLjAxNTEgNTk2LjcwMjIpIiB5Mj0iMzIwLjIxNDQiIHgyPSIxMTguMTA0MiIgeTE9IjMyMC4wMTk4IiB4MT0iMTMxLjE4NyIgZ3JhZGllbnRVbml0cz0idXNlclNwYWNlT25Vc2UiIGlkPSJTVkdJRF8wMDAwMDAyNTQyMDE5OTYwMjM4NDkwOTg1MDAwMDAxNzM0MTQyMTY2NzkxNDM4NjA1OV8iPiYjeGE7CQk8c3RvcCBzdHlsZT0ic3RvcC1jb2xvcjojRjVGRjgwO3N0b3Atb3BhY2l0eTowIiBvZmZzZXQ9IjAiLz4mI3hhOwkJPHN0b3Agc3R5bGU9InN0b3AtY29sb3I6I0Y1RkY4MCIgb2Zmc2V0PSIxIi8+JiN4YTsJPC9saW5lYXJHcmFkaWVudD4mI3hhOwkmI3hhOwkJPHBhdGggZD0iTTEzMC45OCwyODkuNjNsLTAuMDEtMTMuMzdjMC0wLjgtMC4zMi0xLjU2LTAuODgtMi4xMmwtMTEuNTctMTEuNTlsLTguMDcsOC45MWwxOC44NywxOC44NyYjMTA7JiM5OyYjOTtDMTI5LjkzLDI5MC45NCwxMzAuOTgsMjkwLjUsMTMwLjk4LDI4OS42M0wxMzAuOTgsMjg5LjYzeiIgc3R5bGU9ImNsaXAtcGF0aDp1cmwoI1NWR0lEXzAwMDAwMDA5NTc0ODc0NDAwNzcxMjk5NjUwMDAwMDAwNTY5NTI2NzAyNTY1MDM3NDk1Xyk7ZmlsbDp1cmwoI1NWR0lEXzAwMDAwMDI1NDIwMTk5NjAyMzg0OTA5ODUwMDAwMDE3MzQxNDIxNjY3OTE0Mzg2MDU5Xyk7Ii8+JiN4YTsJJiN4YTsJCTxsaW5lYXJHcmFkaWVudCBncmFkaWVudFRyYW5zZm9ybT0ibWF0cml4KDEgMCAwIC0xIC0wLjAxNTEgNTk2LjcwMjIpIiB5Mj0iMjc3Ljk0NTgiIHgyPSI4OS43MzA4IiB5MT0iMjc3Ljk0NTgiIHgxPSIxMDYuMDMzIiBncmFkaWVudFVuaXRzPSJ1c2VyU3BhY2VPblVzZSIgaWQ9IlNWR0lEXzAwMDAwMTQ1NzcxMzA2ODE3MTAyNjU5MTIwMDAwMDE3NjM3NTQxNDM1NzY0OTA5NDQzXyI+JiN4YTsJCTxzdG9wIHN0eWxlPSJzdG9wLWNvbG9yOiNGNUZGODA7c3RvcC1vcGFjaXR5OjAiIG9mZnNldD0iMCIvPiYjeGE7CQk8c3RvcCBzdHlsZT0ic3RvcC1jb2xvcjojRjVGRjgwIiBvZmZzZXQ9IjAuOTYiLz4mI3hhOwk8L2xpbmVhckdyYWRpZW50PiYjeGE7CSYjeGE7CQk8cGF0aCBkPSJNMTA1LjQxLDMyMS44NmwtMjIuNzQtMjIuNjlMNzQuNTQsMzA4bDMwLjA5LDMwLjA2YzAuNjEsMC42MSwxLjY3LDAuMTgsMS42Ny0wLjY5di0xMy4zOCYjMTA7JiM5OyYjOTtDMTA2LjI5LDMyMy4xOSwxMDUuOTgsMzIyLjQzLDEwNS40MSwzMjEuODZMMTA1LjQxLDMyMS44NnoiIHN0eWxlPSJjbGlwLXBhdGg6dXJsKCNTVkdJRF8wMDAwMDAwOTU3NDg3NDQwMDc3MTI5OTY1MDAwMDAwMDU2OTUyNjcwMjU2NTAzNzQ5NV8pO2ZpbGw6dXJsKCNTVkdJRF8wMDAwMDE0NTc3MTMwNjgxNzEwMjY1OTEyMDAwMDAxNzYzNzU0MTQzNTc2NDkwOTQ0M18pOyIvPiYjeGE7CTxwYXRoIGQ9Ik0xMzUuNzEsMjE3LjExJiMxMDsmIzk7JiM5O2MtNDAuODIsMi44Mi03My40NCwzNi42MS03NC45OCw3Ny41Yy0xLjUsMzkuOTIsMjUuOTUsNzMuNyw2My4wMiw4MS45OGwtNDkuNDEtNDkuNDJjLTAuNzEtMC43MS0xLjExLTEuNjctMS4xLTIuNjdsMC4wNC0xNS45NyYjMTA7JiM5OyYjOTtjMC0wLjY3LDAuODEtMSwxLjI4LTAuNTNsOC4xMy04LjgzYy0wLjUxLTAuNTEtMC41MS0xLjM0LDAtMS44NWw3LjgyLTcuOGMwLjUxLTAuNTEsMS4zNC0wLjUxLDEuODQsMGwyNi40MSwyNi40MSYjMTA7JiM5OyYjOTtjMS4xMiwxLjEyLDEuNzUsMi42NCwxLjc1LDQuMjN2MjcuNTZjMCwzLjk3LDEuNTgsNy43OCw0LjM4LDEwLjU5bDIwLjE0LDIwLjE0YzUuMTItMC4yMiwxMC4xLTAuOTIsMTQuOTMtMi4wNWwtMjUuNTEtMjUuNTImIzEwOyYjOTsmIzk7Yy0xLjI2LTEuMjYtMS45Ny0yLjk3LTEuOTctNC43NlYzMTkuNWMwLTQuMzctMS43My04LjU1LTQuODItMTEuNjRsLTI2LjgxLTI2LjgxYy0wLjUxLTAuNTEtMC41MS0xLjM0LDAtMS44NWw3Ljc2LTcuNzQmIzEwOyYjOTsmIzk7YzAuNTEtMC41MSwxLjM0LTAuNTEsMS44NCwwbDguMDctOC45MWMtMC4xNS0wLjE3LTAuMjktMC4zNi0wLjQ0LTAuNTZjLTIuMzEtMy4xMS0zLjcxLTguMjQtMi4wNy0xNC4wMyYjMTA7JiM5OyYjOTtjMC45OC0zLjcsMy4wMS02LjUsNi43Ni05Ljg5YzAuMzMtMC4zLDAuODUtMC4zMSwxLjE4LTAuMDJsOS43LDguNDFsMS45MSwxLjY2YzAuNzMsMC42NCwxLjYxLDEuMDksMi41NiwxLjMxbDMwLjI2LDcuMTkmIzEwOyYjOTsmIzk7YzAuMzUsMC4wOCwwLjY4LDAuMjYsMC45MywwLjUxbDMxLjA4LDMxYzAuNTQsMC41MiwwLjg1LDEuMjQsMC44NSwydjYuNTljMCwxLjAxLTAuMjYsMi4wMS0wLjc0LDIuOWwtMTUuMzgsMjguMDImIzEwOyYjOTsmIzk7Yy0wLjY3LDEuMjMtMi4xNywxLjc0LTMuNDUsMS4xOGwtNy4wOS0zLjA5aC0yNS45MWMtMS42NywwLTMuMDEsMS4zNS0zLjAxLDMuMDF2MTEuNTVjMCwxLjU5LDAuNjMsMy4xMiwxLjc1LDQuMjVsMjYuODQsMjcuMDQmIzEwOyYjOTsmIzk7YzI4LjI2LTEyLjU4LDQ3Ljk3LTQwLjkzLDQ3Ljk3LTczLjg3QzIyMi4yMSwyNTEuMTksMTgyLjkxLDIxMy44NSwxMzUuNzEsMjE3LjExTDEzNS43MSwyMTcuMTF6IiBzdHlsZT0iY2xpcC1wYXRoOnVybCgjU1ZHSURfMDAwMDAwMDk1NzQ4NzQ0MDA3NzEyOTk2NTAwMDAwMDA1Njk1MjY3MDI1NjUwMzc0OTVfKTtmaWxsOiNGNUZGODA7Ii8+JiN4YTs8L2c+JiN4YTs8cGF0aCBkPSJNMzQ2LjYzLDI3Mi4wN2MxLjY1LDEuNTgsMy42MywyLjM3LDUuOTQsMi4zN2MyLjMxLDAsNC4yNS0wLjc5LDUuODQtMi4zN2MxLjU4LTEuNjQsMi4zNy0zLjY1LDIuMzctNi4wMSYjMTA7JiM5O2MwLTIuMzctMC43OS00LjIxLTIuMzctNS43MmMtMS41OC0xLjU4LTMuNTMtMi4zNy01Ljg0LTIuMzdjLTIuMzEsMC00LjI5LDAuNzktNS45NCwyLjM3Yy0xLjU4LDEuNTEtMi4zNywzLjQyLTIuMzcsNS43MiYjMTA7JiM5O0MzNDQuMjYsMjY4LjM1LDM0NS4wNSwyNzAuNDMsMzQ2LjYzLDI3Mi4wN3oiIGNsYXNzPSJzdDMiLz4mI3hhOzxwYXRoIGQ9Ik0zNTkuNywyODEuNDJoLTE0LjM3djU1LjQzaDE0LjM3VjI4MS40MnoiIGNsYXNzPSJzdDQiLz4mI3hhOzxwYXRoIGQ9Ik0yOTkuNDEsMzM2Ljg1aDE0LjQ4di02NC4yMmgyMi40OXYtMTIuODZoLTU5LjQ1djEyLjg2aDIyLjQ5VjMzNi44NXoiIGNsYXNzPSJzdDMiLz4mI3hhOzxwYXRoIGQ9Ik0zNzEuMjIsMzM2Ljg1di01NS40M2gxMS41NGwxLjA1LDcuNDNjMS42OC0yLjcyLDQuMTMtNC45Miw3LjM0LTYuNTljMy4yMi0xLjc0LDYuODUtMi42MiwxMC45MS0yLjYyJiMxMDsmIzk7YzQuMDYsMCw3LjMxLDAuODcsMTAuMTgsMi42MmMyLjg3LDEuNzQsNS4wNyw0LjIyLDYuNjEsNy40M2MxLjYxLTIuOTMsNC4wNi01LjMzLDcuMzQtNy4yMmMzLjM2LTEuODgsNy4xNy0yLjgyLDExLjQ0LTIuODImIzEwOyYjOTtjNS43NCwwLDEwLjMyLDEuODgsMTMuNzQsNS42NWMzLjUsMy43LDUuMjUsOC42NSw1LjI1LDE0Ljg1djM2LjcxaC0xNC4yN3YtMzYuMDhjMC0yLjcyLTAuOC00Ljg4LTIuNDEtNi40OCYjMTA7JiM5O2MtMS41NC0xLjY3LTMuNjQtMi41MS02LjI5LTIuNTFjLTMuNzEsMC02Ljc1LDEuMDgtOS4xMywzLjI0Yy0yLjMxLDIuMTYtMy40Niw0LjkyLTMuNDYsOC4yNnYzMy41N2gtMTQuMjd2LTM2LjA4JiMxMDsmIzk7YzAtMi43Mi0wLjgtNC44OC0yLjQxLTYuNDhjLTEuNTQtMS42Ny0zLjY0LTIuNTEtNi4yOS0yLjUxYy0zLjcxLDAtNi43MSwxLjA4LTkuMDIsMy4yNGMtMi4zMSwyLjE2LTMuNDYsNC45Mi0zLjQ2LDguMjZ2MzMuNTcmIzEwOyYjOTtMMzcxLjIyLDMzNi44NUwzNzEuMjIsMzM2Ljg1eiIgY2xhc3M9InN0MyIvPiYjeGE7PHBhdGggZD0iTTUxOS4wOCwzMDguOTNjLTAuMDctNS45My0xLjI2LTExLjA5LTMuNTctMTUuNDhjLTIuMzEtNC40Ni01LjQ5LTcuODgtOS41NS0xMC4yNSYjMTA7JiM5O2MtNC4wNi0yLjM3LTguNzQtMy41Ni0xNC4wNi0zLjU2Yy01LjMyLDAtMTAuMjEsMS4yNS0xNC40OCwzLjc3Yy00LjI3LDIuNDQtNy42Miw1LjkzLTEwLjA3LDEwLjQ2Yy0yLjM4LDQuNDYtMy41Nyw5LjYyLTMuNTcsMTUuNDgmIzEwOyYjOTtjMCw1Ljg2LDEuMjIsMTAuNywzLjY3LDE1LjE2YzIuNDUsNC4zOSw1Ljg3LDcuODQsMTAuMjgsMTAuMzVjNC40OCwyLjQ0LDkuNTUsMy42NiwxNS4yMSwzLjY2YzYuNjQsMCwxMi4yNC0xLjY3LDE2Ljc4LTUuMDImIzEwOyYjOTtjMy4yNS0yLjQ0LDUuNzMtNS41Nyw3LjQ0LTkuMzlsLTEyLjgzLTMuNDNjLTAuOTIsMS43Mi0yLjE5LDMuMS0zLjg0LDQuMTRjLTIuMDMsMS4yNS00LjUxLDEuODgtNy40NSwxLjg4JiMxMDsmIzk7Yy00LjEzLDAtNy41Ni0xLjMzLTEwLjI4LTMuOTdjLTIuNzMtMi42NS00LjM3LTYuMTQtNC45My0xMC40Nmg0MS4yM1YzMDguOTNMNTE5LjA4LDMwOC45M3ogTTQ3OC40OCwzMDIuNzYmIzEwOyYjOTtjMC45MS0zLjQ5LDIuNTUtNi4yMSw0LjkzLTguMTZjMi4zOC0yLjAyLDUuMjEtMy4wMyw4LjUtMy4wM2MzLjI5LDAsNS45MSwwLjk4LDguMDgsMi45M2MyLjE3LDEuOTUsMy42NCw0LjcxLDQuNDEsOC4yNkg0NzguNDgmIzEwOyYjOTtMNDc4LjQ4LDMwMi43NnoiIGNsYXNzPSJzdDMiLz4mI3hhOzxwYXRoIGQ9Ik01NDkuNzUsMzM4LjUzYy04LjA0LDAtMTQuMjMtMS42Ny0xOC41Ny01LjAyYy0zLjAxLTIuMzItNS4wNS01LjM1LTYuMTUtOS4wOGwxMy4wNy0zLjQ5JiMxMDsmIzk7YzAuNDcsMS43NSwxLjQxLDMuMTYsMi44Myw0LjJjMS45NiwxLjMzLDQuNTUsMS45OSw3Ljc3LDEuOTljMi43MywwLDQuODItMC40OSw2LjI5LTEuNDZjMS40Ny0xLjA1LDIuMi0yLjQ4LDIuMi00LjI5JiMxMDsmIzk7YzAtMS4xOS0wLjMxLTIuMDktMC45NC0yLjcyYy0wLjU2LTAuNy0xLjIyLTEuMTktMS45OS0xLjQ2Yy0wLjc3LTAuMzUtMi4zMS0wLjkxLTQuNjItMS42N2wtNy4wMy0yLjMmIzEwOyYjOTtjLTMuNzgtMS4xOS02LjkyLTIuNDEtOS40NC0zLjY2Yy0yLjQ1LTEuMzItNC40NC0zLjAzLTUuOTgtNS4xMmMtMS40Ny0yLjE2LTIuMi00Ljg1LTIuMi04LjA1YzAtNS4wOSwxLjg5LTkuMTMsNS42Ny0xMi4xMyYjMTA7JiM5O2MzLjc3LTMuMDcsOS4wOS00LjYsMTUuOTUtNC42YzYuODYsMCwxMi4xMywxLjcxLDE2LjI2LDUuMTJjMy4xOCwyLjU0LDUuMzYsNS45Miw2LjUzLDEwLjE1bC0xMi41NCwzLjM1JiMxMDsmIzk7Yy0wLjQxLTIuMjUtMS40MS0zLjk2LTMuMDItNS4xM2MtMS44Mi0xLjM5LTQuMjMtMi4wOS03LjI0LTIuMDljLTIuMzgsMC00LjI0LDAuNDUtNS41NiwxLjM2Yy0xLjMzLDAuOTEtMS45OSwyLjE2LTEuOTksMy43NiYjMTA7JiM5O2MwLDEuMTIsMC4zNSwyLjA2LDEuMDUsMi44MmMwLjc3LDAuNywxLjU3LDEuMjIsMi40MSwxLjU3YzAuODQsMC4zNSwyLjMxLDAuODcsNC40MSwxLjU3bDYuNCwyLjJjNC4zNCwxLjM5LDcuNzcsMi43OSwxMC4yOCw0LjE4JiMxMDsmIzk7YzIuNTIsMS4zMiw0LjQ0LDMuMDMsNS43Nyw1LjEyYzEuNCwyLjAyLDIuMSw0LjY3LDIuMSw3Ljk1YzAsNS4zLTEuOTIsOS40NS01Ljc3LDEyLjQ1UzU1Ni41MywzMzguNTMsNTQ5Ljc1LDMzOC41MyIgY2xhc3M9InN0MyIvPiYjeGE7PHBhdGggZD0iTTU5MS4zMiwzMzQuNzZjNC40MSwyLjUxLDkuNTgsMy43NywxNS41MywzLjc3YzcuNDgsMCwxMy42NC0yLjEzLDE4LjQ3LTYuMzhjMy4wMS0yLjY1LDUuMjEtNS44Niw2LjYxLTkuNjQmIzEwOyYjOTtsLTEzLjM4LTMuNTdjLTAuNzYsMS43Ny0xLjgyLDMuMjgtMy4yLDQuNTNjLTIuMjQsMi4wMi01LjA3LDMuMDMtOC41LDMuMDNjLTQuNDEsMC03Ljk3LTEuNi0xMC43LTQuODEmIzEwOyYjOTtjLTIuNzMtMy4yMS00LjA5LTcuNTMtNC4wOS0xMi45N2MwLTUuNDQsMS4zMy05LjM4LDMuOTktMTIuNDVjMi42Ni0zLjE0LDYuMTYtNC43MSwxMC40OS00LjcxYzMuNSwwLDYuNDMsMS4wNSw4LjgxLDMuMTQmIzEwOyYjOTtjMS42OCwxLjQzLDIuODksMy4yLDMuNjIsNS4zMmwxMy41Mi0zLjYxYy0wLjYzLTEuOTktMS41Mi0zLjg1LTIuNjYtNS41OGMtMi4zMS0zLjU2LTUuNDYtNi4zMS05LjQ0LTguMjYmIzEwOyYjOTtjLTMuOTgtMS45NS04LjU2LTIuOTMtMTMuNzQtMi45M2MtNS41OSwwLTEwLjYsMS4xOS0xNSwzLjU2Yy00LjM0LDIuMzctNy43Niw1Ljc1LTEwLjI4LDEwLjE1Yy0yLjQ1LDQuMzktMy42Nyw5LjUyLTMuNjcsMTUuMzgmIzEwOyYjOTtjMCw1Ljg2LDEuMTUsMTAuODQsMy40NiwxNS4zOEM1ODMuNTIsMzI4LjYyLDU4Ni45MSwzMzIuMTgsNTkxLjMyLDMzNC43NiIgY2xhc3M9InN0MyIvPiYjeGE7PHBhdGggZD0iTTY4MS45LDI4MS40MmwtMS4yNiw4LjM3Yy0xLjYxLTMuMTQtNC4xMi01LjYxLTcuNTUtNy40M2MtMy4zNi0xLjgxLTcuMTctMi43Mi0xMS40NC0yLjcyJiMxMDsmIzk7Yy00Ljg5LDAtOS4zLDEuMjUtMTMuMjIsMy43N2MtMy44NSwyLjQ0LTYuODUsNS44OS05LjAyLDEwLjM1Yy0yLjE3LDQuMzktMy4yNSw5LjQxLTMuMjUsMTUuMDZzMS4xMiwxMC45NSwzLjM2LDE1LjQ4JiMxMDsmIzk7YzIuMjQsNC40Niw1LjMyLDcuOTUsOS4yMywxMC40NmMzLjk4LDIuNTEsOC40NiwzLjc3LDEzLjQzLDMuNzdjMy43OCwwLDcuMTMtMC43MywxMC4wNy0yLjJjMi45NC0xLjQ2LDUuMjUtMy40OSw2LjkzLTYuMDd2Ni41OSYjMTA7JiM5O2gxNC4yN3YtNTUuNDNMNjgxLjksMjgxLjQyTDY4MS45LDI4MS40MnogTTY3NS4xOSwzMjEuNzljLTIuNTksMy4zNS02LjAyLDUuMDItMTAuMjgsNS4wMmMtNC4yNywwLTcuNjMtMS42NC0xMC4yOS00LjkyJiMxMDsmIzk7Yy0yLjY2LTMuMzUtMy45OC03LjY3LTMuOTgtMTIuOTdjMC01LjMsMS4zMy05LjM0LDMuOTgtMTIuNTVjMi42Ni0zLjI4LDYuMTItNC45MiwxMC4zOS00LjkyYzQuMjcsMCw3LjU5LDEuNiwxMC4xOCw0LjgxJiMxMDsmIzk7YzIuNjYsMy4yMSwzLjk4LDcuMzksMy45OCwxMi41NUM2NzkuMTcsMzEzLjk4LDY3Ny44NSwzMTguNDQsNjc1LjE5LDMyMS43OSIgY2xhc3M9InN0MyIvPiYjeGE7PHBhdGggZD0iTTcxOC4yMiwyNTkuNzdoLTE0LjI3djc3LjA4aDE0LjI3VjI1OS43N3oiIGNsYXNzPSJzdDQiLz4mI3hhOzxwYXRoIGQ9Ik03ODEuOTksMzA4LjkzYy0wLjA3LTUuOTMtMS4yNi0xMS4wOS0zLjU3LTE1LjQ4Yy0yLjMxLTQuNDYtNS40OS03Ljg4LTkuNTUtMTAuMjUmIzEwOyYjOTtjLTQuMDYtMi4zNy04Ljc0LTMuNTYtMTQuMDYtMy41NmMtNS4zMiwwLTEwLjIxLDEuMjUtMTQuNDgsMy43N2MtNC4yNywyLjQ0LTcuNjMsNS45My0xMC4wNywxMC40NmMtMi4zOCw0LjQ2LTMuNTYsOS42Mi0zLjU2LDE1LjQ4JiMxMDsmIzk7YzAsNS44NiwxLjIyLDEwLjcsMy42NywxNS4xNmMyLjQ1LDQuMzksNS44Nyw3Ljg0LDEwLjI4LDEwLjM1YzQuNDcsMi40NCw5LjU1LDMuNjYsMTUuMjEsMy42NmM2LjY0LDAsMTIuMjQtMS42NywxNi43OS01LjAyJiMxMDsmIzk7YzMuMjQtMi40NCw1LjczLTUuNTcsNy40NC05LjM5bC0xMi44My0zLjQzYy0wLjkxLDEuNzItMi4xOSwzLjEtMy44NCw0LjE0Yy0yLjAzLDEuMjUtNC41MSwxLjg4LTcuNDUsMS44OCYjMTA7JiM5O2MtNC4xMywwLTcuNTUtMS4zMy0xMC4yOC0zLjk3Yy0yLjczLTIuNjUtNC4zNy02LjE0LTQuOTMtMTAuNDZoNDEuMjNWMzA4LjkzTDc4MS45OSwzMDguOTN6IE03NDEuMzgsMzAyLjc2JiMxMDsmIzk7YzAuOTEtMy40OSwyLjU1LTYuMjEsNC45My04LjE2YzIuMzgtMi4wMiw1LjIxLTMuMDMsOC41LTMuMDNjMy4yOSwwLDUuOTEsMC45OCw4LjA4LDIuOTNjMi4xNywxLjk1LDMuNjQsNC43MSw0LjQxLDguMjZINzQxLjM4JiMxMDsmIzk7TDc0MS4zOCwzMDIuNzZ6IiBjbGFzcz0ic3QzIi8+JiN4YTs8L3N2Zz4=;" vertex="1" parent="1">
          <mxGeometry x="2150" y="-265.15" width="173.36" height="122.5" as="geometry" />
        </mxCell>
        <mxCell id="EDPNCyUkhr80lCYK83Yf-206" value="" style="endArrow=open;endFill=1;endSize=7;html=1;rounded=1;exitX=1.003;exitY=0.509;exitDx=0;exitDy=0;fontSize=6;exitPerimeter=0;curved=0;" edge="1" parent="1" source="EDPNCyUkhr80lCYK83Yf-207" target="EDPNCyUkhr80lCYK83Yf-204">
          <mxGeometry width="160" relative="1" as="geometry">
            <mxPoint x="2170" y="179.99999999999977" as="sourcePoint" />
            <mxPoint x="1960" y="250" as="targetPoint" />
            <Array as="points">
              <mxPoint x="2237" y="228" />
            </Array>
          </mxGeometry>
        </mxCell>
        <mxCell id="EDPNCyUkhr80lCYK83Yf-219" value="" style="swimlane;startSize=0;rounded=1;dashed=1;dashPattern=8 8;" vertex="1" parent="1">
          <mxGeometry x="1520" y="410" width="300" height="290" as="geometry">
            <mxRectangle x="1080" y="100" width="50" height="40" as="alternateBounds" />
          </mxGeometry>
        </mxCell>
        <mxCell id="EDPNCyUkhr80lCYK83Yf-225" value="&lt;span style=&quot;font-size: 16px;&quot;&gt;Fetch Trades&lt;/span&gt;" style="rounded=1;whiteSpace=wrap;html=1;fontFamily=Lucida Console;align=left;spacingTop=0;spacingLeft=20;" vertex="1" parent="EDPNCyUkhr80lCYK83Yf-219">
          <mxGeometry x="70" y="40" width="160" height="50" as="geometry" />
        </mxCell>
        <mxCell id="EDPNCyUkhr80lCYK83Yf-226" value="&lt;span style=&quot;font-size: 16px;&quot;&gt;Update portfolio&lt;/span&gt;" style="rounded=1;whiteSpace=wrap;html=1;fontFamily=Lucida Console;align=left;spacingTop=0;spacingLeft=20;" vertex="1" parent="EDPNCyUkhr80lCYK83Yf-219">
          <mxGeometry x="52.5" y="190" width="195" height="50" as="geometry" />
        </mxCell>
        <mxCell id="EDPNCyUkhr80lCYK83Yf-229" value="&lt;span style=&quot;font-size: 16px;&quot;&gt;Fetch Prices&lt;/span&gt;" style="rounded=1;whiteSpace=wrap;html=1;fontFamily=Lucida Console;align=left;spacingTop=0;spacingLeft=20;" vertex="1" parent="EDPNCyUkhr80lCYK83Yf-219">
          <mxGeometry x="70" y="115" width="160" height="50" as="geometry" />
        </mxCell>
        <mxCell id="EDPNCyUkhr80lCYK83Yf-223" value="" style="shape=image;verticalLabelPosition=bottom;labelBackgroundColor=default;verticalAlign=top;aspect=fixed;imageAspect=0;editableCssRules=.*;image=data:image/svg+xml,PHN2ZyB4bWxucz0iaHR0cDovL3d3dy53My5vcmcvMjAwMC9zdmciIHZpZXdCb3g9IjAgMCAxMjggMTI4Ij4mI3hhOzxwYXRoIGZpbGw9IiMwMTdjZWUiIGQ9Im0yLjU0NDEgMTI3IDYwLjgwOS02Mi4zMzJhMS4xMjQgMS4xMjQgMCAwIDAgMC4xMzU5LTEuNDM2OGMtMy42OTc3LTUuMTYyNS0xMC41MjEtNi4wNTc4LTEzLjA1LTkuNTI2OC03LjQ5MDMtMTAuMjc1LTkuMzkwOS0xNi4wOTItMTIuNjEtMTUuNzMxYTAuOTgzNzQgMC45ODM3NCAwIDAgMC0wLjU4NDY0IDAuMzA4NWwtMjEuOTY2IDIyLjUxOGMtMTIuNjM4IDEyLjk0NC0xNC40NTQgNDEuNDc1LTE0Ljc4MiA2NS4zNjdhMS4xOTA4IDEuMTkwOCAwIDAgMCAyLjA0NzMgMC44MzI3M3oiLz4mI3hhOzxwYXRoIGZpbGw9IiMwMGFkNDYiIGQ9Im0xMjYuOTkgMTI1LjQ2LTYyLjMzMi02MC44MTNhMS4xMjQgMS4xMjQgMCAwIDAtMS40Mzg5LTAuMTM1OWMtNS4xNjI1IDMuNjk5OC02LjA1NzggMTAuNTIxLTkuNTI2OCAxMy4wNS0xMC4yNzUgNy40OTAzLTE2LjA5MiA5LjM5MDktMTUuNzMxIDEyLjYxYTAuOTgzNzQgMC45ODM3NCAwIDAgMCAwLjMwODUgMC41ODI0OGwyMi41MTggMjEuOTY2YzEyLjk0NCAxMi42MzggNDEuNDc1IDE0LjQ1NCA2NS4zNjcgMTQuNzgyYTEuMTkwOCAxLjE5MDggMCAwIDAgMC44MzQ4OS0yLjA0MDh6Ii8+JiN4YTs8cGF0aCBmaWxsPSIjMDRkNjU5IiBkPSJtNjAuNzkyIDExMi43MmMtNy4wNzYtNi45MDM1LTEwLjM1NS0yMC41NTkgMy4yMDU4LTQ4LjcxOS0yMi4wNDYgOS44NTI1LTI5Ljc3MSAyMi44MDMtMjUuOTcyIDI2LjUxMXoiLz4mI3hhOzxwYXRoIGZpbGw9IiMwMGM3ZDQiIGQ9Im0xMjUuNDUgMS4wMTEzLTYwLjgwNyA2Mi4zMzJhMS4xMjE4IDEuMTIxOCAwIDAgMC0wLjEzNTkgMS40MzY4YzMuNjk5OCA1LjE2MjUgMTAuNTE5IDYuMDU3OCAxMy4wNSA5LjUyNjggNy40OTAzIDEwLjI3NSA5LjM5MyAxNi4wOTIgMTIuNjEgMTUuNzMxYTAuOTc5NDMgMC45Nzk0MyAwIDAgMCAwLjU4NDY0LTAuMzA4NWwyMS45NjYtMjIuNTE4YzEyLjYzOC0xMi45NDQgMTQuNDU0LTQxLjQ3NSAxNC43ODItNjUuMzY3YTEuMTkzIDEuMTkzIDAgMCAwLTIuMDQ5NS0wLjgzMjczeiIvPiYjeGE7PHBhdGggZmlsbD0iIzExZTFlZSIgZD0ibTExMi43MyA2Ny4yMTFjLTYuOTAzNSA3LjA3Ni0yMC41NTkgMTAuMzU1LTQ4LjcyMS0zLjIwNTggOS44NTI1IDIyLjA0NiAyMi44MDMgMjkuNzcxIDI2LjUxMSAyNS45NzJ6Ii8+JiN4YTs8cGF0aCBmaWxsPSIjZTQzOTIxIiBkPSJtMS4wMDE3IDIuNTQ5NSA2Mi4zMzIgNjAuODA3YTEuMTI0IDEuMTI0IDAgMCAwIDEuNDM2OCAwLjEzNTljNS4xNjI1LTMuNjk5OCA2LjA1NzgtMTAuNTIxIDkuNTI2OC0xMy4wNSAxMC4yNzUtNy40OTAzIDE2LjA5Mi05LjM5MDkgMTUuNzMxLTEyLjYxYTAuOTkwMjIgMC45OTAyMiAwIDAgMC0wLjMwODUtMC41ODQ2M2wtMjIuNTE4LTIxLjk2NmMtMTIuOTQ0LTEyLjYzOC00MS40NzUtMTQuNDU0LTY1LjM2Ny0xNC43ODJhMS4xOTA4IDEuMTkwOCAwIDAgMC0wLjgzMjczIDIuMDQ5NXoiLz4mI3hhOzxwYXRoIGZpbGw9IiNmZjc1NTciIGQ9Im02Ny4yMTIgMTUuMjg0YzcuMDc2IDYuOTAzNSAxMC4zNTUgMjAuNTU5LTMuMjA1OCA0OC43MjEgMjIuMDQ2LTkuODUyNSAyOS43NzEtMjIuODA1IDI1Ljk3Mi0yNi41MTF6Ii8+JiN4YTs8cGF0aCBmaWxsPSIjMGNiNmZmIiBkPSJtMTUuMjc5IDYwLjhjNi45MDM1LTcuMDc2IDIwLjU1OS0xMC4zNTUgNDguNzIxIDMuMjA1OC05Ljg1MjUtMjIuMDQ2LTIyLjgwMy0yOS43NzEtMjYuNTExLTI1Ljk3MnoiLz4mI3hhOzxjaXJjbGUgZmlsbD0iIzRhNDg0OCIgcj0iMi43MTgyIiBjeT0iNjMuOTk1IiBjeD0iNjQuMDA5Ii8+JiN4YTs8L3N2Zz4=;" vertex="1" parent="1">
          <mxGeometry x="1800" y="390" width="40" height="40" as="geometry" />
        </mxCell>
        <mxCell id="EDPNCyUkhr80lCYK83Yf-228" value="" style="endArrow=open;endFill=1;endSize=7;html=1;rounded=0;exitX=1;exitY=0.5;exitDx=0;exitDy=0;entryX=0;entryY=0.5;entryDx=0;entryDy=0;fontSize=6;entryPerimeter=0;" edge="1" parent="1" source="EDPNCyUkhr80lCYK83Yf-196" target="EDPNCyUkhr80lCYK83Yf-207">
          <mxGeometry width="160" relative="1" as="geometry">
            <mxPoint x="1650" y="227.5" as="sourcePoint" />
            <mxPoint x="2102" y="227.5" as="targetPoint" />
          </mxGeometry>
        </mxCell>
        <mxCell id="EDPNCyUkhr80lCYK83Yf-207" value="Insert portfolio, historical profits, balances" style="text;html=1;align=center;verticalAlign=middle;resizable=0;points=[];autosize=1;strokeColor=none;fillColor=none;fontFamily=Lucida Console;fontSize=13;" vertex="1" parent="1">
          <mxGeometry x="1745" y="212.65" width="380" height="30" as="geometry" />
        </mxCell>
        <mxCell id="EDPNCyUkhr80lCYK83Yf-230" value="Centralized Exchanges&amp;nbsp;" style="rounded=1;whiteSpace=wrap;html=1;fontFamily=Lucida Console;align=center;spacingTop=0;spacingLeft=20;fontSize=16;spacingBottom=40;" vertex="1" parent="1">
          <mxGeometry x="1020" y="485" width="285" height="130" as="geometry" />
        </mxCell>
        <mxCell id="EDPNCyUkhr80lCYK83Yf-234" value="" style="shape=image;verticalLabelPosition=bottom;labelBackgroundColor=default;verticalAlign=top;aspect=fixed;imageAspect=0;editableCssRules=.*;image=data:image/svg+xml,PHN2ZyB4bWxuczp4bGluaz0iaHR0cDovL3d3dy53My5vcmcvMTk5OS94bGluayIgeG1sbnM9Imh0dHA6Ly93d3cudzMub3JnLzIwMDAvc3ZnIiB4bWw6c3BhY2U9InByZXNlcnZlIiB2aWV3Qm94PSIwIDAgMTI2LjYxMSAxMjYuNjExIiBoZWlnaHQ9IjEyNi42MTFweCIgd2lkdGg9IjEyNi42MTFweCIgeT0iMHB4IiB4PSIwcHgiIGlkPSJZb3VyX2Rlc2lnbiIgdmVyc2lvbj0iMS4xIj4mI3hhOzxwb2x5Z29uIHBvaW50cz0iMzguMTcxLDUzLjIwMyA2Mi43NTksMjguNjE2IDg3LjM2LDUzLjIxNiAxMDEuNjY3LDM4LjkwOSA2Mi43NTksMCAyMy44NjQsMzguODk2IiBmaWxsPSIjRjNCQTJGIi8+JiN4YTs8cmVjdCBoZWlnaHQ9IjIwLjIzNCIgd2lkdGg9IjIwLjIzMyIgZmlsbD0iI0YzQkEyRiIgdHJhbnNmb3JtPSJtYXRyaXgoMC43MDcxIDAuNzA3MSAtMC43MDcxIDAuNzA3MSA0OC43OTMzIDguODEwNikiIHk9IjUzLjE4OCIgeD0iMy42NDQiLz4mI3hhOzxwb2x5Z29uIHBvaW50cz0iMzguMTcxLDczLjQwOCA2Mi43NTksOTcuOTk1IDg3LjM1OSw3My4zOTYgMTAxLjY3NCw4Ny42OTUgMTAxLjY2Nyw4Ny43MDMgNjIuNzU5LDEyNi42MTEgJiMxMDsmIzk7MjMuODYzLDg3LjcxNiAyMy44NDMsODcuNjk2IiBmaWxsPSIjRjNCQTJGIi8+JiN4YTs8cmVjdCBoZWlnaHQ9IjIwLjIzMyIgd2lkdGg9IjIwLjIzNCIgZmlsbD0iI0YzQkEyRiIgdHJhbnNmb3JtPSJtYXRyaXgoLTAuNzA3MSAwLjcwNzEgLTAuNzA3MSAtMC43MDcxIDIzNS41NDU3IDI5LjA1MDMpIiB5PSI1My4xODkiIHg9IjEwMS42NCIvPiYjeGE7PHBvbHlnb24gcG9pbnRzPSI3Ny4yNzEsNjMuMjk4IDc3LjI3Nyw2My4yOTggNjIuNzU5LDQ4Ljc4IDUyLjAzLDU5LjUwOSA1Mi4wMjksNTkuNTA5IDUwLjc5Nyw2MC43NDIgNDguMjU0LDYzLjI4NSAmIzEwOyYjOTs0OC4yNTQsNjMuMjg1IDQ4LjIzNCw2My4zMDUgNDguMjU0LDYzLjMyNiA2Mi43NTksNzcuODMxIDc3LjI3Nyw2My4zMTMgNzcuMjg0LDYzLjMwNSIgZmlsbD0iI0YzQkEyRiIvPiYjeGE7PC9zdmc+;" vertex="1" parent="1">
          <mxGeometry x="1142.5" y="555" width="40" height="40" as="geometry" />
        </mxCell>
        <mxCell id="EDPNCyUkhr80lCYK83Yf-235" value="" style="shape=image;verticalLabelPosition=bottom;labelBackgroundColor=default;verticalAlign=top;aspect=fixed;imageAspect=0;editableCssRules=.*;image=data:image/svg+xml,PHN2ZyB4bWxuczp4bGluaz0iaHR0cDovL3d3dy53My5vcmcvMTk5OS94bGluayIgeG1sbnM9Imh0dHA6Ly93d3cudzMub3JnLzIwMDAvc3ZnIiB4bWw6c3BhY2U9InByZXNlcnZlIiBzdHlsZT0iZW5hYmxlLWJhY2tncm91bmQ6bmV3IDAgMCAyNTAwIDI1MDA7IiB2aWV3Qm94PSIwIDAgMjUwMCAyNTAwIiB5PSIwcHgiIHg9IjBweCIgaWQ9IkxheWVyXzEiIHZlcnNpb249IjEuMSI+JiN4YTs8c3R5bGUgdHlwZT0idGV4dC9jc3MiPiYjeGE7CS5zdDB7ZmlsbDpub25lO30mI3hhOzwvc3R5bGU+JiN4YTs8ZyBpZD0iTGF5ZXJfeDAwMjBfMSI+JiN4YTsJPGcgaWQ9Il8yMTg3Mjg5NzI4OTI4Ij4mI3hhOwkJPHJlY3QgaGVpZ2h0PSIyNTAwIiB3aWR0aD0iMjUwMCIgY2xhc3M9InN0MCIgeT0iMCIvPiYjeGE7CQk8Zz4mI3hhOwkJCTxwYXRoIGQ9Ik0xNDY0LjMsMTAxNS4zaC00MDUuMmMtMTcuMiwwLTMxLjMsMTQuMS0zMS4zLDMxLjN2NDA1LjJjMCwxNy4yLDE0LjEsMzEuMywzMS4zLDMxLjNoNDA1LjJjMTcuMiwwLDMxLjMtMTQuMSwzMS4zLTMxLjMgICAgIHYtNDA1LjJDMTQ5NS42LDEwMjkuNCwxNDgxLjUsMTAxNS4zLDE0NjQuMywxMDE1LjN6Ii8+JiN4YTsJCQk8cGF0aCBkPSJNOTk2LjYsNTQ5LjFINTkxLjRjLTE3LjIsMC0zMS4zLDE0LjEtMzEuMywzMS4zdjQwNS4yYzAsMTcuMiwxNC4xLDMxLjMsMzEuMywzMS4zaDQwNS4yYzE3LjIsMCwzMS4zLTE0LjEsMzEuMy0zMS4zICAgICBWNTgwLjRDMTAyNy44LDU2My4yLDEwMTMuOCw1NDkuMSw5OTYuNiw1NDkuMXoiLz4mI3hhOwkJCTxwYXRoIGQ9Ik0xOTMwLjUsNTQ5LjFoLTQwNS4yYy0xNy4yLDAtMzEuMywxNC4xLTMxLjMsMzEuM3Y0MDUuMmMwLDE3LjIsMTQuMSwzMS4zLDMxLjMsMzEuM2g0MDUuMmMxNy4yLDAsMzEuMy0xNC4xLDMxLjMtMzEuMyAgICAgVjU4MC40QzE5NjEuOCw1NjMuMiwxOTQ3LjcsNTQ5LjEsMTkzMC41LDU0OS4xeiIvPiYjeGE7CQkJPHBhdGggZD0iTTk5Ni42LDE0ODEuNUg1OTEuNGMtMTcuMiwwLTMxLjMsMTQuMS0zMS4zLDMxLjNWMTkxOGMwLDE3LjIsMTQuMSwzMS4zLDMxLjMsMzEuM2g0MDUuMmMxNy4yLDAsMzEuMy0xNC4xLDMxLjMtMzEuMyAgICAgdi00MDUuMkMxMDI3LjgsMTQ5NS42LDEwMTMuOCwxNDgxLjUsOTk2LjYsMTQ4MS41eiIvPiYjeGE7CQkJPHBhdGggZD0iTTE5MzAuNSwxNDgxLjVoLTQwNS4yYy0xNy4yLDAtMzEuMywxNC4xLTMxLjMsMzEuM1YxOTE4YzAsMTcuMiwxNC4xLDMxLjMsMzEuMywzMS4zaDQwNS4yYzE3LjIsMCwzMS4zLTE0LjEsMzEuMy0zMS4zICAgICB2LTQwNS4yQzE5NjEuOCwxNDk1LjYsMTk0Ny43LDE0ODEuNSwxOTMwLjUsMTQ4MS41eiIvPiYjeGE7CQk8L2c+JiN4YTsJPC9nPiYjeGE7PC9nPiYjeGE7PC9zdmc+;" vertex="1" parent="1">
          <mxGeometry x="1072.5" y="545" width="60" height="60" as="geometry" />
        </mxCell>
        <mxCell id="EDPNCyUkhr80lCYK83Yf-236" value="" style="shape=image;verticalLabelPosition=bottom;labelBackgroundColor=default;verticalAlign=top;aspect=fixed;imageAspect=0;editableCssRules=.*;image=data:image/svg+xml,PHN2ZyB4bWxuczp4bGluaz0iaHR0cDovL3d3dy53My5vcmcvMTk5OS94bGluayIgeG1sbnM9Imh0dHA6Ly93d3cudzMub3JnLzIwMDAvc3ZnIiB4bWw6c3BhY2U9InByZXNlcnZlIiBzdHlsZT0iZW5hYmxlLWJhY2tncm91bmQ6bmV3IDAgMCAyNTAwIDI1MDA7IiB2aWV3Qm94PSIwIDAgMjUwMCAyNTAwIiB5PSIwcHgiIHg9IjBweCIgaWQ9IkxheWVyXzEiIHZlcnNpb249IjEuMSI+JiN4YTs8c3R5bGUgdHlwZT0idGV4dC9jc3MiPiYjeGE7CS5zdDB7ZmlsbDpub25lO30mI3hhOwkuc3Qxe2ZpbGw6IzMxNTZBQTt9JiN4YTsJLnN0MntmaWxsOiMxOTcyRTI7fSYjeGE7CS5zdDN7ZmlsbDp1cmwoI1NWR0lEXzFfKTt9JiN4YTs8L3N0eWxlPiYjeGE7PGcgaWQ9IkxheWVyX3gwMDIwXzEiPiYjeGE7CTxyZWN0IGhlaWdodD0iMjUwMCIgd2lkdGg9IjI1MDAiIGNsYXNzPSJzdDAiIHk9IjAiLz4mI3hhOwk8ZyBpZD0iXzI1MDA0MDY1NzAwMDAiPiYjeGE7CQk8cGF0aCBkPSJNMjQ1OS43LDE1NjYuNmwtNTQwLjYtOTM3LjdjLTExOC41LTE5NS41LTQwNy41LTE5Ny41LTUyMS45LDguM2wtNTY3LjYsOTc1LjIgICAgYy0xMDYsMTc4LjgsMjUsNDAzLjMsMjM3LjEsNDAzLjNIMjIwNEMyNDE4LjEsMjAxNS43LDI1NzguMiwxNzg0LjksMjQ1OS43LDE1NjYuNnoiIGNsYXNzPSJzdDEiLz4mI3hhOwkJPHBhdGggZD0iTTE2ODAsMTYzOS40bC0zMy4zLTU4LjJjLTMxLjItNTQuMS05OS44LTE3MC41LTk5LjgtMTcwLjVsLTQ1Ny40LTc5NC4zQzk3MSw0MzkuNyw2OTAuMyw0MjUuMSw1NzEuOCw2NDcuNiAgICBMMzkuNSwxNTY4LjdjLTExMC4yLDE5My40LDIwLjgsNDQ0LjksMjU5LjksNDQ3aDExMzEuMWg0ODIuNGgyODYuOUMxOTA2LjcsMjAxNy44LDE4MTMuMSwxODY2LDE2ODAsMTYzOS40TDE2ODAsMTYzOS40eiIgY2xhc3M9InN0MiIvPiYjeGE7CQkmI3hhOwkJCTxsaW5lYXJHcmFkaWVudCBncmFkaWVudFRyYW5zZm9ybT0ibWF0cml4KDEgMCAwIC0xIDAgMjQ5Ny44ODk5KSIgeTI9IjcyNy4yMjY3IiB4Mj0iMTkzNS42NDciIHkxPSIxMjExLjY1NjYiIHgxPSI3MDMuNjM3IiBncmFkaWVudFVuaXRzPSJ1c2VyU3BhY2VPblVzZSIgaWQ9IlNWR0lEXzFfIj4mI3hhOwkJCTxzdG9wIHN0eWxlPSJzdG9wLWNvbG9yOiMyNjRDQTI7c3RvcC1vcGFjaXR5OjAiIG9mZnNldD0iMCIvPiYjeGE7CQkJPHN0b3Agc3R5bGU9InN0b3AtY29sb3I6IzIzNDU4OCIgb2Zmc2V0PSIxIi8+JiN4YTsJCTwvbGluZWFyR3JhZGllbnQ+JiN4YTsJCTxwYXRoIGQ9Ik0xNjgwLjEsMTYzOS40bC0zMy4zLTU4LjJjLTMxLjItNTQuMS05OS44LTE3MC41LTk5LjgtMTcwLjVsLTI5NS4zLTUxOS44bC00MjQuMiw3MjMuNiAgICBjLTEwNiwxNzguOCwyNSw0MDMuNCwyMzcsNDAzLjRoMzYzLjloNDgyLjRoMjg5QzE5MDQuNiwyMDE1LjcsMTgxMy4xLDE4NjYsMTY4MC4xLDE2MzkuNEwxNjgwLjEsMTYzOS40eiIgY2xhc3M9InN0MyIvPiYjeGE7CTwvZz4mI3hhOzwvZz4mI3hhOzwvc3ZnPg==;" vertex="1" parent="1">
          <mxGeometry x="1202.5" y="550" width="50" height="50" as="geometry" />
        </mxCell>
        <mxCell id="EDPNCyUkhr80lCYK83Yf-237" value="" style="endArrow=open;endFill=1;endSize=7;html=1;rounded=1;exitX=0;exitY=0.5;exitDx=0;exitDy=0;entryX=1;entryY=0.5;entryDx=0;entryDy=0;fontSize=6;curved=0;" edge="1" parent="1" source="EDPNCyUkhr80lCYK83Yf-229" target="EDPNCyUkhr80lCYK83Yf-230">
          <mxGeometry width="160" relative="1" as="geometry">
            <mxPoint x="1260" y="440" as="sourcePoint" />
            <mxPoint x="1450" y="440" as="targetPoint" />
          </mxGeometry>
        </mxCell>
        <mxCell id="EDPNCyUkhr80lCYK83Yf-238" value="" style="endArrow=open;endFill=1;endSize=7;html=1;rounded=1;exitX=0;exitY=0.5;exitDx=0;exitDy=0;entryX=1;entryY=0.5;entryDx=0;entryDy=0;fontSize=6;curved=0;" edge="1" parent="1" source="EDPNCyUkhr80lCYK83Yf-225" target="EDPNCyUkhr80lCYK83Yf-230">
          <mxGeometry width="160" relative="1" as="geometry">
            <mxPoint x="1320" y="470" as="sourcePoint" />
            <mxPoint x="1510" y="470" as="targetPoint" />
            <Array as="points">
              <mxPoint x="1460" y="475" />
              <mxPoint x="1460" y="550" />
            </Array>
          </mxGeometry>
        </mxCell>
        <mxCell id="EDPNCyUkhr80lCYK83Yf-240" value="" style="endArrow=open;endFill=1;endSize=7;html=1;rounded=1;exitX=0;exitY=0.5;exitDx=0;exitDy=0;entryX=1;entryY=0.5;entryDx=0;entryDy=0;fontSize=6;curved=0;" edge="1" parent="1" source="EDPNCyUkhr80lCYK83Yf-226" target="EDPNCyUkhr80lCYK83Yf-230">
          <mxGeometry width="160" relative="1" as="geometry">
            <mxPoint x="1600" y="565" as="sourcePoint" />
            <mxPoint x="1315" y="565" as="targetPoint" />
            <Array as="points">
              <mxPoint x="1460" y="625" />
              <mxPoint x="1460" y="550" />
            </Array>
          </mxGeometry>
        </mxCell>
        <mxCell id="EDPNCyUkhr80lCYK83Yf-241" value="" style="endArrow=open;endFill=1;endSize=7;html=1;rounded=1;entryX=0.5;entryY=0;entryDx=0;entryDy=0;fontSize=6;exitX=-0.004;exitY=0.489;exitDx=0;exitDy=0;exitPerimeter=0;curved=0;" edge="1" parent="1" source="EDPNCyUkhr80lCYK83Yf-242" target="EDPNCyUkhr80lCYK83Yf-230">
          <mxGeometry width="160" relative="1" as="geometry">
            <mxPoint x="1280" y="310" as="sourcePoint" />
            <mxPoint x="1325" y="575" as="targetPoint" />
            <Array as="points">
              <mxPoint x="1163" y="315" />
            </Array>
          </mxGeometry>
        </mxCell>
        <mxCell id="EDPNCyUkhr80lCYK83Yf-246" value="" style="endArrow=open;endFill=1;endSize=7;html=1;rounded=1;exitX=0.5;exitY=1;exitDx=0;exitDy=0;entryX=1;entryY=0.554;entryDx=0;entryDy=0;fontSize=6;entryPerimeter=0;curved=0;" edge="1" parent="1" source="EDPNCyUkhr80lCYK83Yf-196" target="EDPNCyUkhr80lCYK83Yf-242">
          <mxGeometry width="160" relative="1" as="geometry">
            <mxPoint x="1540" y="210" as="sourcePoint" />
            <mxPoint x="1163" y="490" as="targetPoint" />
            <Array as="points">
              <mxPoint x="1560" y="317" />
            </Array>
          </mxGeometry>
        </mxCell>
        <mxCell id="EDPNCyUkhr80lCYK83Yf-242" value="Fetch portfolio" style="text;html=1;align=center;verticalAlign=middle;resizable=0;points=[];autosize=1;strokeColor=none;fillColor=none;fontFamily=Lucida Console;fontSize=16;" vertex="1" parent="1">
          <mxGeometry x="1275" y="300" width="170" height="30" as="geometry" />
        </mxCell>
        <mxCell id="EDPNCyUkhr80lCYK83Yf-248" value="" style="endArrow=open;endFill=1;endSize=7;html=1;rounded=1;exitX=1;exitY=0.5;exitDx=0;exitDy=0;entryX=0.5;entryY=1;entryDx=0;entryDy=0;fontSize=6;curved=0;" edge="1" parent="1" source="EDPNCyUkhr80lCYK83Yf-225" target="EDPNCyUkhr80lCYK83Yf-204">
          <mxGeometry width="160" relative="1" as="geometry">
            <mxPoint x="1860" y="540" as="sourcePoint" />
            <mxPoint x="2050" y="540" as="targetPoint" />
            <Array as="points">
              <mxPoint x="1910" y="475" />
              <mxPoint x="1910" y="550" />
              <mxPoint x="2240" y="550" />
            </Array>
          </mxGeometry>
        </mxCell>
        <mxCell id="EDPNCyUkhr80lCYK83Yf-249" value="" style="endArrow=open;endFill=1;endSize=7;html=1;rounded=1;exitX=1;exitY=0.5;exitDx=0;exitDy=0;entryX=0.5;entryY=1;entryDx=0;entryDy=0;fontSize=6;curved=0;" edge="1" parent="1" source="EDPNCyUkhr80lCYK83Yf-229" target="EDPNCyUkhr80lCYK83Yf-204">
          <mxGeometry width="160" relative="1" as="geometry">
            <mxPoint x="1840" y="590" as="sourcePoint" />
            <mxPoint x="2030" y="590" as="targetPoint" />
            <Array as="points">
              <mxPoint x="2240" y="550" />
            </Array>
          </mxGeometry>
        </mxCell>
        <mxCell id="EDPNCyUkhr80lCYK83Yf-250" value="" style="endArrow=open;endFill=1;endSize=7;html=1;rounded=1;entryX=0.5;entryY=1;entryDx=0;entryDy=0;fontSize=6;exitX=1;exitY=0.5;exitDx=0;exitDy=0;curved=0;" edge="1" parent="1" source="EDPNCyUkhr80lCYK83Yf-226" target="EDPNCyUkhr80lCYK83Yf-204">
          <mxGeometry width="160" relative="1" as="geometry">
            <mxPoint x="1840" y="650" as="sourcePoint" />
            <mxPoint x="2030" y="650" as="targetPoint" />
            <Array as="points">
              <mxPoint x="1910" y="625" />
              <mxPoint x="1910" y="550" />
              <mxPoint x="2240" y="550" />
            </Array>
          </mxGeometry>
        </mxCell>
        <mxCell id="EDPNCyUkhr80lCYK83Yf-253" value="&lt;font style=&quot;font-size: 16px;&quot;&gt;AI Server&lt;/font&gt;" style="rounded=1;whiteSpace=wrap;html=1;fontFamily=Lucida Console;align=left;spacingTop=0;spacingLeft=20;" vertex="1" parent="1">
          <mxGeometry x="1060" y="-298.75" width="180" height="60" as="geometry" />
        </mxCell>
        <mxCell id="EDPNCyUkhr80lCYK83Yf-254" value="" style="shape=image;verticalLabelPosition=bottom;labelBackgroundColor=default;verticalAlign=top;aspect=fixed;imageAspect=0;editableCssRules=.*;image=data:image/svg+xml,PHN2ZyB4bWxucz0iaHR0cDovL3d3dy53My5vcmcvMjAwMC9zdmciIGZpbGw9Im5vbmUiIHZpZXdCb3g9IjAgMCA2NCA2NCIgaGVpZ2h0PSI4MDBweCIgd2lkdGg9IjgwMHB4Ij48cGF0aCBmaWxsPSJ1cmwoI2EpIiBkPSJNMzEuODg1IDE2Yy04LjEyNCAwLTcuNjE3IDMuNTIzLTcuNjE3IDMuNTIzbC4wMSAzLjY1aDcuNzUydjEuMDk1SDIxLjE5N1MxNiAyMy42NzggMTYgMzEuODc2YzAgOC4xOTYgNC41MzcgNy45MDYgNC41MzcgNy45MDZoMi43MDh2LTMuODA0cy0uMTQ2LTQuNTM3IDQuNDY1LTQuNTM3aDcuNjg4czQuMzIuMDcgNC4zMi00LjE3NXYtNy4wMTlTNDAuMzc0IDE2IDMxLjg4NSAxNnptLTQuMjc1IDIuNDU0Yy43NzEgMCAxLjM5NS42MjQgMS4zOTUgMS4zOTVzLS42MjQgMS4zOTUtMS4zOTUgMS4zOTVhMS4zOTMgMS4zOTMgMCAwIDEtMS4zOTUtMS4zOTVjMC0uNzcxLjYyNC0xLjM5NSAxLjM5NS0xLjM5NXoiLz48cGF0aCBmaWxsPSJ1cmwoI2IpIiBkPSJNMzIuMTE1IDQ3LjgzM2M4LjEyNCAwIDcuNjE3LTMuNTIzIDcuNjE3LTMuNTIzbC0uMDEtMy42NUgzMS45N3YtMS4wOTVoMTAuODMyUzQ4IDQwLjE1NSA0OCAzMS45NThjMC04LjE5Ny00LjUzNy03LjkwNi00LjUzNy03LjkwNmgtMi43MDh2My44MDNzLjE0NiA0LjUzNy00LjQ2NSA0LjUzN2gtNy42ODhzLTQuMzItLjA3LTQuMzIgNC4xNzV2Ny4wMTlzLS42NTYgNC4yNDcgNy44MzMgNC4yNDd6bTQuMjc1LTIuNDU0YTEuMzkzIDEuMzkzIDAgMCAxLTEuMzk1LTEuMzk1YzAtLjc3LjYyNC0xLjM5NCAxLjM5NS0xLjM5NHMxLjM5NS42MjMgMS4zOTUgMS4zOTRjMCAuNzcyLS42MjQgMS4zOTUtMS4zOTUgMS4zOTV6Ii8+PGRlZnM+PGxpbmVhckdyYWRpZW50IGdyYWRpZW50VW5pdHM9InVzZXJTcGFjZU9uVXNlIiB5Mj0iMzQuNjU4IiB4Mj0iMzQuODk4IiB5MT0iMTguNzgyIiB4MT0iMTkuMDc1IiBpZD0iYSI+PHN0b3Agc3RvcC1jb2xvcj0iIzM4N0VCOCIvPjxzdG9wIHN0b3AtY29sb3I9IiMzNjY5OTQiIG9mZnNldD0iMSIvPjwvbGluZWFyR3JhZGllbnQ+PGxpbmVhckdyYWRpZW50IGdyYWRpZW50VW5pdHM9InVzZXJTcGFjZU9uVXNlIiB5Mj0iNDUuMTYzIiB4Mj0iNDUuODAzIiB5MT0iMjguODgyIiB4MT0iMjguODA5IiBpZD0iYiI+PHN0b3Agc3RvcC1jb2xvcj0iI0ZGRTA1MiIvPjxzdG9wIHN0b3AtY29sb3I9IiNGRkMzMzEiIG9mZnNldD0iMSIvPjwvbGluZWFyR3JhZGllbnQ+PC9kZWZzPjwvc3ZnPg==;" vertex="1" parent="1">
          <mxGeometry x="1162.5" y="-307.5" width="77.5" height="77.5" as="geometry" />
        </mxCell>
        <mxCell id="EDPNCyUkhr80lCYK83Yf-262" value="" style="endArrow=open;endFill=1;endSize=7;html=1;rounded=1;exitX=0.5;exitY=0;exitDx=0;exitDy=0;fontSize=6;entryX=0.006;entryY=0.491;entryDx=0;entryDy=0;entryPerimeter=0;curved=0;" edge="1" parent="1" source="EDPNCyUkhr80lCYK83Yf-178" target="EDPNCyUkhr80lCYK83Yf-263">
          <mxGeometry width="160" relative="1" as="geometry">
            <mxPoint x="590" y="-60" as="sourcePoint" />
            <mxPoint x="720" y="-280" as="targetPoint" />
            <Array as="points">
              <mxPoint x="720" y="-270" />
            </Array>
          </mxGeometry>
        </mxCell>
        <mxCell id="EDPNCyUkhr80lCYK83Yf-263" value="Get Suggested Expenses" style="text;html=1;align=center;verticalAlign=middle;resizable=0;points=[];autosize=1;strokeColor=none;fillColor=none;fontSize=16;fontFamily=Lucida Console;" vertex="1" parent="1">
          <mxGeometry x="770" y="-283.75" width="240" height="30" as="geometry" />
        </mxCell>
        <mxCell id="EDPNCyUkhr80lCYK83Yf-264" value="" style="endArrow=open;endFill=1;endSize=7;html=1;rounded=0;exitX=1.002;exitY=0.495;exitDx=0;exitDy=0;entryX=0;entryY=0.5;entryDx=0;entryDy=0;fontSize=6;exitPerimeter=0;" edge="1" parent="1" source="EDPNCyUkhr80lCYK83Yf-263" target="EDPNCyUkhr80lCYK83Yf-253">
          <mxGeometry width="160" relative="1" as="geometry">
            <mxPoint x="992.5" y="-170" as="sourcePoint" />
            <mxPoint x="1182.5" y="-170" as="targetPoint" />
          </mxGeometry>
        </mxCell>
        <mxCell id="EDPNCyUkhr80lCYK83Yf-265" value="" style="shape=cylinder3;whiteSpace=wrap;html=1;boundedLbl=1;backgroundOutline=1;size=15;fillColor=#b0e3e6;strokeColor=#0e8088;" vertex="1" parent="1">
          <mxGeometry x="1521.6600000000005" y="-313.75" width="70" height="90" as="geometry" />
        </mxCell>
        <mxCell id="EDPNCyUkhr80lCYK83Yf-266" value="" style="shape=image;verticalLabelPosition=bottom;labelBackgroundColor=default;verticalAlign=top;aspect=fixed;imageAspect=0;editableCssRules=.*;image=data:image/svg+xml,PHN2ZyB4bWxuczp4bGluaz0iaHR0cDovL3d3dy53My5vcmcvMTk5OS94bGluayIgeG1sbnM9Imh0dHA6Ly93d3cudzMub3JnLzIwMDAvc3ZnIiB4bWw6c3BhY2U9InByZXNlcnZlIiBzdHlsZT0iZW5hYmxlLWJhY2tncm91bmQ6bmV3IDAgMCAyNTAwIDI1MDA7IiB2aWV3Qm94PSIwIDAgMjUwMCAyNTAwIiB5PSIwcHgiIHg9IjBweCIgaWQ9IkxheWVyXzEiIHZlcnNpb249IjEuMSI+JiN4YTs8c3R5bGUgdHlwZT0idGV4dC9jc3MiPiYjeGE7CS5zdDB7Y2xpcC1wYXRoOnVybCgjU1ZHSURfMl8pO2ZpbGw6I0YwQkYxQTt9JiN4YTsJLnN0MXtjbGlwLXBhdGg6dXJsKCNTVkdJRF80Xyk7ZmlsbDojM0VCRUIwO30mI3hhOwkuc3Qye2NsaXAtcGF0aDp1cmwoI1NWR0lEXzZfKTtmaWxsOiMwN0E1REU7fSYjeGE7CS5zdDN7Y2xpcC1wYXRoOnVybCgjU1ZHSURfOF8pO2ZpbGw6IzIzMUYyMDt9JiN4YTsJLnN0NHtmaWxsOiNEN0EyMjk7fSYjeGE7CS5zdDV7ZmlsbDojMDE5QjhGO30mI3hhOwkuc3Q2e2ZpbGw6bm9uZTt9JiN4YTs8L3N0eWxlPiYjeGE7PGc+JiN4YTsJPGRlZnM+JiN4YTsJCTxjaXJjbGUgcj0iMTAwMCIgY3k9IjEyNTAiIGN4PSIxMjUwIiBpZD0iU1ZHSURfMV8iLz4mI3hhOwk8L2RlZnM+JiN4YTsJPGNsaXBQYXRoIGlkPSJTVkdJRF8yXyI+JiN4YTsJCTx1c2Ugc3R5bGU9Im92ZXJmbG93OnZpc2libGU7IiB4bGluazpocmVmPSIjU1ZHSURfMV8iLz4mI3hhOwk8L2NsaXBQYXRoPiYjeGE7CTxwYXRoIGQ9Ik0xNjc4LjEsODEyLjVIMzEyLjVjLTM0LjQsMC02Mi41LTI4LjEtNjIuNS02Mi41VjMxMi41YzAtMzQuNCwyOC4xLTYyLjUsNjIuNS02Mi41aDE3ODEuMyYjMTA7JiM5OyYjOTtjMzQuNCwwLDYyLjUsMjguMSw2Mi41LDYyLjV2MjEuOUMyMTUzLjEsNTk2LjksMTk0MC42LDgxMi41LDE2NzguMSw4MTIuNXoiIGNsYXNzPSJzdDAiLz4mI3hhOzwvZz4mI3hhOzxnPiYjeGE7CTxkZWZzPiYjeGE7CQk8Y2lyY2xlIHI9IjEwMDAiIGN5PSIxMjUwIiBjeD0iMTI1MCIgaWQ9IlNWR0lEXzNfIi8+JiN4YTsJPC9kZWZzPiYjeGE7CTxjbGlwUGF0aCBpZD0iU1ZHSURfNF8iPiYjeGE7CQk8dXNlIHN0eWxlPSJvdmVyZmxvdzp2aXNpYmxlOyIgeGxpbms6aHJlZj0iI1NWR0lEXzNfIi8+JiN4YTsJPC9jbGlwUGF0aD4mI3hhOwk8cGF0aCBkPSJNMjE1OS40LDIyNTBIMjU2LjN2LTU2Mi41aDE0MjguMWMyNjIuNSwwLDQ3NSwyMTIuNSw0NzUsNDc1VjIyNTB6IiBjbGFzcz0ic3QxIi8+JiN4YTs8L2c+JiN4YTs8Zz4mI3hhOwk8Zz4mI3hhOwkJPGRlZnM+JiN4YTsJCQk8Y2lyY2xlIHI9IjEwMDAiIGN5PSIxMjUwIiBjeD0iMTI1MCIgaWQ9IlNWR0lEXzVfIi8+JiN4YTsJCTwvZGVmcz4mI3hhOwkJPGNsaXBQYXRoIGlkPSJTVkdJRF82XyI+JiN4YTsJCQk8dXNlIHN0eWxlPSJvdmVyZmxvdzp2aXNpYmxlOyIgeGxpbms6aHJlZj0iI1NWR0lEXzVfIi8+JiN4YTsJCTwvY2xpcFBhdGg+JiN4YTsJCTxwYXRoIGQ9Ik0xNTY1LjYsMTUzMS4zSDE1MFY5NjguOGgxNDE1LjZjMTU2LjMsMCwyODEuMywxMjUsMjgxLjMsMjgxLjNTMTcxOC44LDE1MzEuMywxNTY1LjYsMTUzMS4zeiIgY2xhc3M9InN0MiIvPiYjeGE7CTwvZz4mI3hhOzwvZz4mI3hhOzxnPiYjeGE7CTxnPiYjeGE7CQk8ZGVmcz4mI3hhOwkJCTxjaXJjbGUgcj0iMTAwMCIgY3k9IjEyNTAiIGN4PSIxMjUwIiBpZD0iU1ZHSURfN18iLz4mI3hhOwkJPC9kZWZzPiYjeGE7CQk8Y2xpcFBhdGggaWQ9IlNWR0lEXzhfIj4mI3hhOwkJCTx1c2Ugc3R5bGU9Im92ZXJmbG93OnZpc2libGU7IiB4bGluazpocmVmPSIjU1ZHSURfN18iLz4mI3hhOwkJPC9jbGlwUGF0aD4mI3hhOwkJPHBhdGggZD0iTTExMjUsOTY4LjhIMjAwdjU2Mi41aDkyNWMyMS45LTg0LjQsMzQuNC0xNzguMSwzNC40LTI4MS4zUzExNDYuOSwxMDUzLjEsMTEyNSw5NjguOHoiIGNsYXNzPSJzdDMiLz4mI3hhOwk8L2c+JiN4YTs8L2c+JiN4YTs8cGF0aCBkPSJNNzQ2LjksMzg0LjRjLTE2OC44LDEwMC0zMDkuNCwyNTAtMzk2LjksNDI4LjFoNzM3LjVDMTAxMi41LDY0MC42LDg5My43LDQ5Ni45LDc0Ni45LDM4NC40eiIgY2xhc3M9InN0NCIvPiYjeGE7PHBhdGggZD0iTTc3OC4xLDIxMzEuM2MxNDMuOC0xMTUuNiwyNTkuNC0yNjguOCwzMzEuMy00NDMuOEgzNTBDNDQzLjgsMTg3NSw1OTMuOCwyMDMxLjMsNzc4LjEsMjEzMS4zeiIgY2xhc3M9InN0NSIvPiYjeGE7PHBhdGggZD0iTTAsMGgyNTAwdjI1MDBIMFYweiIgY2xhc3M9InN0NiIvPiYjeGE7PC9zdmc+;" vertex="1" parent="1">
          <mxGeometry x="1537.42" y="-280" width="45.15" height="45.15" as="geometry" />
        </mxCell>
        <mxCell id="EDPNCyUkhr80lCYK83Yf-268" value="Backend DB" style="text;html=1;align=center;verticalAlign=middle;whiteSpace=wrap;rounded=0;fontFamily=Lucida Console;fontSize=16;" vertex="1" parent="1">
          <mxGeometry x="2180" y="-180" width="116.66" height="30" as="geometry" />
        </mxCell>
        <mxCell id="EDPNCyUkhr80lCYK83Yf-269" value="Vector Store" style="text;html=1;align=center;verticalAlign=middle;whiteSpace=wrap;rounded=0;fontFamily=Lucida Console;fontSize=16;" vertex="1" parent="1">
          <mxGeometry x="1498.3400000000001" y="-210" width="123.32" height="30" as="geometry" />
        </mxCell>
        <mxCell id="EDPNCyUkhr80lCYK83Yf-270" value="" style="endArrow=open;endFill=1;endSize=7;html=1;rounded=0;exitX=1;exitY=0.5;exitDx=0;exitDy=0;entryX=0;entryY=0.5;entryDx=0;entryDy=0;fontSize=6;entryPerimeter=0;" edge="1" parent="1" source="7zvQqdPTVO7yc7Q5468k-6" target="EDPNCyUkhr80lCYK83Yf-265">
          <mxGeometry width="160" relative="1" as="geometry">
            <mxPoint x="1275" y="-230" as="sourcePoint" />
            <mxPoint x="1465" y="-230" as="targetPoint" />
          </mxGeometry>
        </mxCell>
        <mxCell id="EDPNCyUkhr80lCYK83Yf-195" value="" style="endArrow=open;endFill=1;endSize=7;html=1;rounded=1;entryX=0.5;entryY=0;entryDx=0;entryDy=0;fontSize=6;entryPerimeter=0;curved=0;exitX=1;exitY=0.5;exitDx=0;exitDy=0;" edge="1" parent="1" target="EDPNCyUkhr80lCYK83Yf-180" source="EDPNCyUkhr80lCYK83Yf-178">
          <mxGeometry width="160" relative="1" as="geometry">
            <mxPoint x="840" y="150" as="sourcePoint" />
            <mxPoint x="1030" y="202.5" as="targetPoint" />
            <Array as="points">
              <mxPoint x="910" y="180" />
              <mxPoint x="910" y="228" />
            </Array>
          </mxGeometry>
        </mxCell>
        <mxCell id="7zvQqdPTVO7yc7Q5468k-1" value="" style="endArrow=open;endFill=1;endSize=7;html=1;rounded=1;entryX=0.5;entryY=0;entryDx=0;entryDy=0;fontSize=6;entryPerimeter=0;curved=0;exitX=1;exitY=0.5;exitDx=0;exitDy=0;" edge="1" parent="1" source="EDPNCyUkhr80lCYK83Yf-178" target="EDPNCyUkhr80lCYK83Yf-181">
          <mxGeometry width="160" relative="1" as="geometry">
            <mxPoint x="820" y="190" as="sourcePoint" />
            <mxPoint x="1000" y="238" as="targetPoint" />
            <Array as="points">
              <mxPoint x="910" y="180" />
              <mxPoint x="910" y="138" />
            </Array>
          </mxGeometry>
        </mxCell>
        <mxCell id="7zvQqdPTVO7yc7Q5468k-2" value="&lt;font style=&quot;font-size: 16px;&quot;&gt;Embedding Consumer&lt;/font&gt;" style="rounded=1;whiteSpace=wrap;html=1;fontFamily=Lucida Console;align=left;spacingTop=0;spacingLeft=20;" vertex="1" parent="1">
          <mxGeometry x="1430" y="-40" width="260" height="60" as="geometry" />
        </mxCell>
        <mxCell id="7zvQqdPTVO7yc7Q5468k-3" value="" style="shape=image;verticalLabelPosition=bottom;labelBackgroundColor=default;verticalAlign=top;aspect=fixed;imageAspect=0;editableCssRules=.*;image=data:image/svg+xml,PHN2ZyB4bWxucz0iaHR0cDovL3d3dy53My5vcmcvMjAwMC9zdmciIGZpbGw9Im5vbmUiIHZpZXdCb3g9IjAgMCA2NCA2NCIgaGVpZ2h0PSI4MDBweCIgd2lkdGg9IjgwMHB4Ij48cGF0aCBmaWxsPSJ1cmwoI2EpIiBkPSJNMzEuODg1IDE2Yy04LjEyNCAwLTcuNjE3IDMuNTIzLTcuNjE3IDMuNTIzbC4wMSAzLjY1aDcuNzUydjEuMDk1SDIxLjE5N1MxNiAyMy42NzggMTYgMzEuODc2YzAgOC4xOTYgNC41MzcgNy45MDYgNC41MzcgNy45MDZoMi43MDh2LTMuODA0cy0uMTQ2LTQuNTM3IDQuNDY1LTQuNTM3aDcuNjg4czQuMzIuMDcgNC4zMi00LjE3NXYtNy4wMTlTNDAuMzc0IDE2IDMxLjg4NSAxNnptLTQuMjc1IDIuNDU0Yy43NzEgMCAxLjM5NS42MjQgMS4zOTUgMS4zOTVzLS42MjQgMS4zOTUtMS4zOTUgMS4zOTVhMS4zOTMgMS4zOTMgMCAwIDEtMS4zOTUtMS4zOTVjMC0uNzcxLjYyNC0xLjM5NSAxLjM5NS0xLjM5NXoiLz48cGF0aCBmaWxsPSJ1cmwoI2IpIiBkPSJNMzIuMTE1IDQ3LjgzM2M4LjEyNCAwIDcuNjE3LTMuNTIzIDcuNjE3LTMuNTIzbC0uMDEtMy42NUgzMS45N3YtMS4wOTVoMTAuODMyUzQ4IDQwLjE1NSA0OCAzMS45NThjMC04LjE5Ny00LjUzNy03LjkwNi00LjUzNy03LjkwNmgtMi43MDh2My44MDNzLjE0NiA0LjUzNy00LjQ2NSA0LjUzN2gtNy42ODhzLTQuMzItLjA3LTQuMzIgNC4xNzV2Ny4wMTlzLS42NTYgNC4yNDcgNy44MzMgNC4yNDd6bTQuMjc1LTIuNDU0YTEuMzkzIDEuMzkzIDAgMCAxLTEuMzk1LTEuMzk1YzAtLjc3LjYyNC0xLjM5NCAxLjM5NS0xLjM5NHMxLjM5NS42MjMgMS4zOTUgMS4zOTRjMCAuNzcyLS42MjQgMS4zOTUtMS4zOTUgMS4zOTV6Ii8+PGRlZnM+PGxpbmVhckdyYWRpZW50IGdyYWRpZW50VW5pdHM9InVzZXJTcGFjZU9uVXNlIiB5Mj0iMzQuNjU4IiB4Mj0iMzQuODk4IiB5MT0iMTguNzgyIiB4MT0iMTkuMDc1IiBpZD0iYSI+PHN0b3Agc3RvcC1jb2xvcj0iIzM4N0VCOCIvPjxzdG9wIHN0b3AtY29sb3I9IiMzNjY5OTQiIG9mZnNldD0iMSIvPjwvbGluZWFyR3JhZGllbnQ+PGxpbmVhckdyYWRpZW50IGdyYWRpZW50VW5pdHM9InVzZXJTcGFjZU9uVXNlIiB5Mj0iNDUuMTYzIiB4Mj0iNDUuODAzIiB5MT0iMjguODgyIiB4MT0iMjguODA5IiBpZD0iYiI+PHN0b3Agc3RvcC1jb2xvcj0iI0ZGRTA1MiIvPjxzdG9wIHN0b3AtY29sb3I9IiNGRkMzMzEiIG9mZnNldD0iMSIvPjwvbGluZWFyR3JhZGllbnQ+PC9kZWZzPjwvc3ZnPg==;" vertex="1" parent="1">
          <mxGeometry x="1610" y="-50" width="80" height="80" as="geometry" />
        </mxCell>
        <mxCell id="7zvQqdPTVO7yc7Q5468k-4" value="" style="endArrow=open;endFill=1;endSize=7;html=1;rounded=1;exitX=0.5;exitY=1;exitDx=0;exitDy=0;entryX=0;entryY=0.5;entryDx=0;entryDy=0;fontSize=6;exitPerimeter=0;curved=0;" edge="1" parent="1" source="EDPNCyUkhr80lCYK83Yf-181" target="7zvQqdPTVO7yc7Q5468k-2">
          <mxGeometry width="160" relative="1" as="geometry">
            <mxPoint x="1210" y="238" as="sourcePoint" />
            <mxPoint x="1440" y="238" as="targetPoint" />
            <Array as="points">
              <mxPoint x="1340" y="138" />
              <mxPoint x="1340" y="-10" />
            </Array>
          </mxGeometry>
        </mxCell>
        <mxCell id="7zvQqdPTVO7yc7Q5468k-5" value="" style="endArrow=open;endFill=1;endSize=7;html=1;rounded=0;exitX=0.5;exitY=0;exitDx=0;exitDy=0;entryX=0.5;entryY=1;entryDx=0;entryDy=0;fontSize=6;" edge="1" parent="1" source="7zvQqdPTVO7yc7Q5468k-2" target="EDPNCyUkhr80lCYK83Yf-269">
          <mxGeometry width="160" relative="1" as="geometry">
            <mxPoint x="1231.66" y="-259" as="sourcePoint" />
            <mxPoint x="1531.66" y="-259" as="targetPoint" />
          </mxGeometry>
        </mxCell>
        <mxCell id="7zvQqdPTVO7yc7Q5468k-7" value="" style="endArrow=open;endFill=1;endSize=7;html=1;rounded=0;exitX=1;exitY=0.5;exitDx=0;exitDy=0;entryX=0;entryY=0.5;entryDx=0;entryDy=0;fontSize=6;entryPerimeter=0;" edge="1" parent="1" source="EDPNCyUkhr80lCYK83Yf-254" target="7zvQqdPTVO7yc7Q5468k-6">
          <mxGeometry width="160" relative="1" as="geometry">
            <mxPoint x="1240" y="-269" as="sourcePoint" />
            <mxPoint x="1522" y="-269" as="targetPoint" />
          </mxGeometry>
        </mxCell>
        <mxCell id="7zvQqdPTVO7yc7Q5468k-6" value="Get Similarities" style="text;html=1;align=center;verticalAlign=middle;resizable=0;points=[];autosize=1;strokeColor=none;fillColor=none;fontFamily=Lucida Console;fontSize=16;" vertex="1" parent="1">
          <mxGeometry x="1290" y="-283.75" width="180" height="30" as="geometry" />
        </mxCell>
        <mxCell id="7zvQqdPTVO7yc7Q5468k-12" value="" style="shape=image;verticalLabelPosition=bottom;labelBackgroundColor=default;verticalAlign=top;aspect=fixed;imageAspect=0;editableCssRules=.*;image=data:image/svg+xml,PHN2ZyB4bWxucz0iaHR0cDovL3d3dy53My5vcmcvMjAwMC9zdmciIGhlaWdodD0iMjUwMCIgd2lkdGg9IjI1MDAiIHZpZXdCb3g9IjAgMCA4MCA4MCIgaWQ9IkxheWVyXzEiPjxzdHlsZT4uc3Qwe2ZpbGw6I2U5NDc4Yn0uc3Qxe2ZpbGw6IzNlYmViMH0uc3Qye2ZpbGw6IzM3YTU5NX0uc3Qze2ZpbGw6IzM1MzUzNX0uc3Q0e2ZpbGw6bm9uZX08L3N0eWxlPjxwYXRoIGQ9Ik0xOS42IDMzLjFjNy4zIDAgMTQuMiAxLjkgMjAuMiA1LjFsMjEuNC0yNS43SDE4Ljh2NTEtMzAuNGguOHoiIGNsYXNzPSJzdDAiLz48cGF0aCBkPSJNMzkuOCAzOC4ybC0yMSAyNS4zdjRoNDIuM2MtMi40LTEyLjYtMTAuNC0yMy4zLTIxLjMtMjkuM3oiIGNsYXNzPSJzdDEiLz48cGF0aCBkPSJNMzkuOCAzOC4ybC0yMSAyNS4zdjRoNy41bDIwLjQtMjQuNnMtMS40LTEuMS0zLjMtMi41Yy0xLjQtMS0zLjYtMi4yLTMuNi0yLjJ6IiBjbGFzcz0ic3QyIi8+PHBhdGggZD0iTTE5LjYgMzMuMWgtLjh2MzAuNGwyMS0yNS4zYy02LTMuMi0xMi45LTUuMS0yMC4yLTUuMXoiIGNsYXNzPSJzdDMiLz48cGF0aCBkPSJNMCAwaDgwdjgwSDB6IiBjbGFzcz0ic3Q0Ii8+PC9zdmc+;" vertex="1" parent="1">
          <mxGeometry x="1760" y="-303.79" width="70.07" height="70.07" as="geometry" />
        </mxCell>
        <mxCell id="7zvQqdPTVO7yc7Q5468k-13" value="" style="endArrow=open;endFill=1;endSize=7;html=1;rounded=0;entryX=1;entryY=0.5;entryDx=0;entryDy=0;fontSize=6;entryPerimeter=0;exitX=0;exitY=0.5;exitDx=0;exitDy=0;" edge="1" parent="1" source="7zvQqdPTVO7yc7Q5468k-15" target="EDPNCyUkhr80lCYK83Yf-265">
          <mxGeometry width="160" relative="1" as="geometry">
            <mxPoint x="1670" y="-210" as="sourcePoint" />
            <mxPoint x="1570" y="-170" as="targetPoint" />
          </mxGeometry>
        </mxCell>
        <mxCell id="7zvQqdPTVO7yc7Q5468k-17" value="" style="endArrow=open;endFill=1;endSize=7;html=1;rounded=0;entryX=1;entryY=0.5;entryDx=0;entryDy=0;fontSize=6;entryPerimeter=0;exitX=0;exitY=0.5;exitDx=0;exitDy=0;" edge="1" parent="1" source="7zvQqdPTVO7yc7Q5468k-12" target="7zvQqdPTVO7yc7Q5468k-15">
          <mxGeometry width="160" relative="1" as="geometry">
            <mxPoint x="1760" y="-269" as="sourcePoint" />
            <mxPoint x="1592" y="-269" as="targetPoint" />
          </mxGeometry>
        </mxCell>
        <mxCell id="7zvQqdPTVO7yc7Q5468k-15" value="Manage" style="text;html=1;align=center;verticalAlign=middle;resizable=0;points=[];autosize=1;strokeColor=none;fillColor=none;fontSize=16;fontFamily=Lucida Console;" vertex="1" parent="1">
          <mxGeometry x="1640" y="-283.75" width="80" height="30" as="geometry" />
        </mxCell>
      </root>
    </mxGraphModel>
  </diagram>
</mxfile>
